<?xml version="1.0" encoding="utf-8"?>
<!-- Generator: Adobe Illustrator 16.0.0, SVG Export Plug-In . SVG Version: 6.00 Build 0)  -->
<!DOCTYPE svg PUBLIC "-//W3C//DTD SVG 1.1//EN" "http://www.w3.org/Graphics/SVG/1.1/DTD/svg11.dtd">
<svg version="1.1" id="Social_Icons" xmlns="http://www.w3.org/2000/svg" xmlns:xlink="http://www.w3.org/1999/xlink" x="0px"
	 y="0px" width="255.121px" height="136.061px" viewBox="0 0 255.121 136.061" enable-background="new 0 0 255.121 136.061"
	 xml:space="preserve">
<g>
	<path fill="#FFFFFF" d="M161.929,68.719c-14.801,0-26.8,11.999-26.8,26.8s11.999,26.8,26.8,26.8s26.8-11.999,26.8-26.8
		S176.73,68.719,161.929,68.719z M174.118,98.547h-9.16v9.16c0,1.673-1.355,3.028-3.028,3.028s-3.028-1.355-3.028-3.028v-9.16h-9.16
		c-1.673,0-3.028-1.355-3.028-3.028c0-1.672,1.355-3.027,3.028-3.027h9.16V83.33c0-1.673,1.355-3.028,3.028-3.028
		s3.028,1.355,3.028,3.028v9.161h9.16c1.673,0,3.028,1.355,3.028,3.027C177.146,97.191,175.791,98.547,174.118,98.547z"/>
	<g>
		<defs>
			<rect id="SVGID_1_" x="85.083" y="13.742" width="75.938" height="98.715"/>
		</defs>
		<clipPath id="SVGID_2_">
			<use xlink:href="#SVGID_1_"  overflow="visible"/>
		</clipPath>
		<path clip-path="url(#SVGID_2_)" fill="#FFFFFF" d="M108.186,47.88c0.999,8.262,8.111,16.839,14.566,16.839
			c7.414,0,14.465-9.014,15.566-16.839c0.416-0.298,1.1-1.016,1.355-2.65c0,0,1.585-5.671-0.511-5.06
			c0.73-2.189,3.153-10.704-1.548-15.991c0,0-2.196-3.01-7.55-4.593c-0.187-0.163-0.375-0.318-0.594-0.469
			c0,0,0.118,0.133,0.292,0.374c-0.304-0.086-0.625-0.161-0.945-0.241c-0.292-0.3-0.618-0.618-0.986-0.941
			c0,0,0.321,0.324,0.712,0.885c-0.147-0.039-0.278-0.074-0.422-0.095c-0.249-0.375-0.542-0.754-0.914-1.147
			c0,0,0.154,0.3,0.363,0.772c-0.987-0.722-2.966-2.4-2.966-4.274c0,0-1.239,0.585-1.963,1.64c0.287-0.874,0.76-1.679,1.541-2.344
			c0,0-0.816,0.417-1.566,1.316c-0.579,0.335-1.918,1.25-2.367,2.866l-0.422-0.213c0.209-0.455,0.5-0.948,0.898-1.432
			c0,0-0.576,0.517-1.087,1.34l-0.854-0.424c0.254-0.485,0.588-0.978,1.044-1.459c0,0-0.456,0.357-0.943,0.954
			c0.136-0.553,0.106-1.198-1.628,0.704c0,0-7.809,3.381-10.069,10.407c0,0-1.327,3.167,0.431,12.483
			c-2.498-1.182-0.795,4.943-0.795,4.943C107.078,46.87,107.767,47.582,108.186,47.88 M122.381,15.379
			c-0.381,0.529-0.704,1.194-0.868,1.993l-0.272-0.101C121.451,16.588,121.813,15.944,122.381,15.379"/>
	</g>
	<path fill="#FFFFFF" d="M130.896,95.518c0-11.691,6.471-21.861,16.018-27.152c-3.098-1.373-5.814-2.234-5.814-2.234
		c-6.63-2.332-6.678-4.669-6.678-4.669c-13.045,25.712-22.95,0.068-22.95,0.068c-0.906,3.473-14.328,7.55-14.328,7.55
		c-3.918,1.508-5.579,3.762-5.579,3.762c-5.802,8.599-6.482,27.756-6.482,27.756c0.077,4.367,1.961,4.824,1.961,4.824
		c13.344,5.954,34.27,7.01,34.27,7.01c5.109,0.108,9.883-0.184,14.199-0.687C132.604,107.02,130.896,101.475,130.896,95.518z"/>
</g>
</svg>
