<?xml version="1.0" encoding="utf-8"?>
<!-- Generator: Adobe Illustrator 16.0.0, SVG Export Plug-In . SVG Version: 6.00 Build 0)  -->
<!DOCTYPE svg PUBLIC "-//W3C//DTD SVG 1.1//EN" "http://www.w3.org/Graphics/SVG/1.1/DTD/svg11.dtd">
<svg version="1.1" id="Social_Icons" xmlns="http://www.w3.org/2000/svg" xmlns:xlink="http://www.w3.org/1999/xlink" x="0px"
	 y="0px" width="255.121px" height="136.061px" viewBox="0 0 255.121 136.061" enable-background="new 0 0 255.121 136.061"
	 xml:space="preserve">
<path fill="#262626" d="M152.996,69.815c-15.891,0-28.774,12.884-28.774,28.774s12.884,28.774,28.774,28.774
	S181.77,114.48,181.77,98.59S168.886,69.815,152.996,69.815z M166.083,101.841h-9.836v9.836c0,1.795-1.456,3.251-3.251,3.251
	c-1.796,0-3.251-1.456-3.251-3.251v-9.836h-9.836c-1.796,0-3.251-1.456-3.251-3.251c0-1.796,1.455-3.25,3.251-3.25h9.836v-9.837
	c0-1.796,1.455-3.25,3.251-3.25c1.795,0,3.251,1.454,3.251,3.25v9.837h9.836c1.795,0,3.251,1.454,3.251,3.25
	C169.333,100.385,167.877,101.841,166.083,101.841z"/>
<g>
	<path fill="#262626" d="M95.292,47.441c1.072,8.871,8.708,18.079,15.64,18.079c7.96,0,15.53-9.678,16.713-18.079
		c0.446-0.32,1.18-1.091,1.455-2.846c0,0,1.702-6.089-0.549-5.432c0.784-2.351,3.387-11.493-1.662-17.169
		c0,0-2.357-3.231-8.105-4.932c-0.201-0.175-0.403-0.341-0.638-0.503c0,0,0.127,0.143,0.313,0.401
		c-0.326-0.092-0.671-0.172-1.015-0.258c-0.313-0.322-0.664-0.663-1.06-1.011c0,0,0.345,0.348,0.765,0.95
		c-0.159-0.042-0.299-0.08-0.453-0.102c-0.268-0.403-0.583-0.811-0.981-1.232c0,0,0.166,0.322,0.389,0.829
		c-1.059-0.774-3.184-2.577-3.184-4.589c0,0-1.33,0.628-2.108,1.761c0.309-0.938,0.816-1.803,1.654-2.518
		c0,0-0.876,0.447-1.681,1.414c-0.622,0.36-2.06,1.342-2.542,3.078l-0.454-0.229c0.224-0.488,0.536-1.018,0.964-1.538
		c0,0-0.619,0.555-1.167,1.438l-0.917-0.456c0.273-0.52,0.631-1.05,1.121-1.566c0,0-0.49,0.383-1.013,1.024
		c0.146-0.594,0.114-1.287-1.748,0.755c0,0-8.384,3.631-10.812,11.173c0,0-1.424,3.401,0.463,13.403
		c-2.682-1.269-0.854,5.308-0.854,5.308C94.103,46.357,94.843,47.121,95.292,47.441 M110.533,12.546
		c-0.408,0.568-0.755,1.282-0.932,2.14l-0.292-0.108C109.534,13.844,109.923,13.152,110.533,12.546"/>
</g>
<path fill="#262626" d="M119.675,98.59c0-12.552,6.947-23.471,17.198-29.154c-3.325-1.473-6.243-2.397-6.243-2.397
	c-7.118-2.502-7.169-5.014-7.169-5.014c-14.006,27.607-24.641,0.073-24.641,0.073c-0.974,3.729-15.383,8.106-15.383,8.106
	c-4.207,1.62-5.99,4.04-5.99,4.04c-6.23,9.231-6.96,29.801-6.96,29.801c0.083,4.688,2.106,5.181,2.106,5.181
	c14.328,6.392,36.795,7.525,36.795,7.525c5.486,0.117,10.61-0.196,15.245-0.737C121.509,110.938,119.675,104.985,119.675,98.59z"/>
</svg>
