<?xml version="1.0" encoding="utf-8"?>
<!-- Generator: Adobe Illustrator 16.0.0, SVG Export Plug-In . SVG Version: 6.00 Build 0)  -->
<!DOCTYPE svg PUBLIC "-//W3C//DTD SVG 1.1//EN" "http://www.w3.org/Graphics/SVG/1.1/DTD/svg11.dtd">
<svg version="1.1" id="Social_Icons" xmlns="http://www.w3.org/2000/svg" xmlns:xlink="http://www.w3.org/1999/xlink" x="0px"
	 y="0px" width="255.121px" height="136.061px" viewBox="0 0 255.121 136.061" enable-background="new 0 0 255.121 136.061"
	 xml:space="preserve">
<g id="_x31__stroke">
	<g id="Facebook_1_">
		<path id="Facebook" fill="#FFFFFF" d="M132.205,136.06H67.04c-4.149,0-7.51-3.363-7.51-7.51V7.51c0-4.148,3.361-7.51,7.51-7.51
			h121.042c4.146,0,7.509,3.36,7.509,7.51v121.041c0,4.147-3.362,7.51-7.509,7.51H153.41V83.37h17.686l2.647-20.534H153.41v-13.11
			c0-5.944,1.65-9.996,10.176-9.996l10.873-0.004V21.359c-1.881-0.25-8.335-0.809-15.846-0.809c-15.678,0-26.41,9.569-26.41,27.143
			v15.145h-17.73v20.534h17.732V136.06z"/>
	</g>
</g>
</svg>
