<?xml version="1.0" encoding="utf-8"?>
<!-- Generator: Adobe Illustrator 21.0.2, SVG Export Plug-In . SVG Version: 6.00 Build 0)  -->
<svg version="1.1" id="Layer_1" xmlns="http://www.w3.org/2000/svg" xmlns:xlink="http://www.w3.org/1999/xlink" x="0px" y="0px"
	 viewBox="0 0 90.7 98.3" style="enable-background:new 0 0 90.7 98.3;" xml:space="preserve">
<style type="text/css">
	.st0{fill:none;stroke:#FFFFFF;stroke-width:1.9308;stroke-miterlimit:10;}
	.st1{fill:#FFFFFF;}
</style>
<g>
	<path class="st0" d="M67.9,27.6c0,1.4-1.1,2.5-2.5,2.5H25c-1.4,0-2.5-1.1-2.5-2.5V10.7c0-1.4,1.1-2.5,2.5-2.5h40.4
		c1.4,0,2.5,1.1,2.5,2.5V27.6z"/>
	<path class="st0" d="M48,40.1c0,1.4-1.2,2.6-2.6,2.6h-0.3c-1.4,0-2.6-1.2-2.6-2.6v-9.7c2.6,0,3.2,0,5.4,0V40.1z"/>
	<path class="st1" d="M61.3,12.7h-32c-1.4,0-2.6,1.2-2.6,2.6V24c0,1.4,1.2,2.6,2.6,2.6h32c1.4,0,2.6-1.2,2.6-2.6v-8.8
		C63.9,13.8,62.7,12.7,61.3,12.7z M59.3,24.5h-6c-0.5,0-0.8-0.4-0.8-0.8c0-0.5,0.4-0.8,0.8-0.8h6c0.5,0,0.8,0.4,0.8,0.8
		C60.1,24.1,59.7,24.5,59.3,24.5z"/>
</g>
<path class="st0" d="M48,39h18.1c1.4,0,2.6,1.2,2.6,2.6l4.5,33.3c0,1.4-1.2,2.6-2.6,2.6H20c-1.4,0-2.6-1.2-2.6-2.6l4.5-33.3
	c0-1.4,1.2-2.6,2.6-2.6h18.1"/>
<g>
	<path class="st1" d="M31.1,47.5h-0.9c-1.4,0-2.6,1.2-2.6,2.6v0.9c0,1.4,1.2,2.6,2.6,2.6h0.9c1.4,0,2.6-1.2,2.6-2.6V50
		C33.7,48.6,32.5,47.5,31.1,47.5z"/>
	<path class="st1" d="M38.5,47.5h-0.9c-1.4,0-2.6,1.2-2.6,2.6v0.9c0,1.4,1.2,2.6,2.6,2.6h0.9c1.4,0,2.6-1.2,2.6-2.6V50
		C41.1,48.6,39.9,47.5,38.5,47.5z"/>
	<path class="st1" d="M45.9,47.5H45c-1.4,0-2.6,1.2-2.6,2.6v0.9c0,1.4,1.2,2.6,2.6,2.6h0.9c1.4,0,2.6-1.2,2.6-2.6V50
		C48.5,48.6,47.3,47.5,45.9,47.5z"/>
	<path class="st1" d="M52.4,53.5h0.9c1.4,0,2.6-1.2,2.6-2.6V50c0-1.4-1.2-2.6-2.6-2.6h-0.9c-1.4,0-2.6,1.2-2.6,2.6v0.9
		C49.8,52.4,51,53.5,52.4,53.5z"/>
	<path class="st1" d="M60.7,47.5h-0.9c-1.4,0-2.6,1.2-2.6,2.6v0.9c0,1.4,1.2,2.6,2.6,2.6h0.9c1.4,0,2.6-1.2,2.6-2.6V50
		C63.3,48.6,62.1,47.5,60.7,47.5z"/>
	<path class="st1" d="M31.1,55.3h-0.9c-1.4,0-2.6,1.2-2.6,2.6v0.9c0,1.4,1.2,2.6,2.6,2.6h0.9c1.4,0,2.6-1.2,2.6-2.6v-0.9
		C33.7,56.5,32.5,55.3,31.1,55.3z"/>
	<path class="st1" d="M38.5,55.3h-0.9c-1.4,0-2.6,1.2-2.6,2.6v0.9c0,1.4,1.2,2.6,2.6,2.6h0.9c1.4,0,2.6-1.2,2.6-2.6v-0.9
		C41.1,56.5,39.9,55.3,38.5,55.3z"/>
	<path class="st1" d="M45.9,55.3H45c-1.4,0-2.6,1.2-2.6,2.6v0.9c0,1.4,1.2,2.6,2.6,2.6h0.9c1.4,0,2.6-1.2,2.6-2.6v-0.9
		C48.5,56.5,47.3,55.3,45.9,55.3z"/>
	<path class="st1" d="M52.4,61.4h0.9c1.4,0,2.6-1.2,2.6-2.6v-0.9c0-1.4-1.2-2.6-2.6-2.6h-0.9c-1.4,0-2.6,1.2-2.6,2.6v0.9
		C49.8,60.2,51,61.4,52.4,61.4z"/>
	<path class="st1" d="M60.7,55.3h-0.9c-1.4,0-2.6,1.2-2.6,2.6v0.9c0,1.4,1.2,2.6,2.6,2.6h0.9c1.4,0,2.6-1.2,2.6-2.6v-0.9
		C63.3,56.5,62.1,55.3,60.7,55.3z"/>
	<path class="st1" d="M31.1,62.9h-0.9c-1.4,0-2.6,1.2-2.6,2.6v0.9c0,1.4,1.2,2.6,2.6,2.6h0.9c1.4,0,2.6-1.2,2.6-2.6v-0.9
		C33.7,64,32.5,62.9,31.1,62.9z"/>
	<path class="st1" d="M38.5,62.9h-0.9c-1.4,0-2.6,1.2-2.6,2.6v0.9c0,1.4,1.2,2.6,2.6,2.6h0.9c1.4,0,2.6-1.2,2.6-2.6v-0.9
		C41.1,64,39.9,62.9,38.5,62.9z"/>
	<path class="st1" d="M45.9,62.9H45c-1.4,0-2.6,1.2-2.6,2.6v0.9c0,1.4,1.2,2.6,2.6,2.6h0.9c1.4,0,2.6-1.2,2.6-2.6v-0.9
		C48.5,64,47.3,62.9,45.9,62.9z"/>
	<path class="st1" d="M60.7,62.9h-8.2c-1.4,0-2.6,1.2-2.6,2.6v0.9c0,1.4,1.2,2.6,2.6,2.6h8.2c1.4,0,2.6-1.2,2.6-2.6v-0.9
		C63.3,64,62.1,62.9,60.7,62.9z"/>
</g>
<path class="st1" d="M71.6,73.2H19.1c-1.4,0-2.6,1.2-2.6,2.6v14c0,1.4,1.2,2.6,2.6,2.6h52.4c1.4,0,2.6-1.2,2.6-2.6v-14
	C74.2,74.3,73,73.2,71.6,73.2z M71.7,87.5c0,1.2-1.2,2.2-2.6,2.2H21.4c-1.4,0-2.6-1-2.6-2.2v-7.1c0-1.2,1.2-2.2,2.6-2.2h47.8
	c1.4,0,2.6,1,2.6,2.2V87.5z"/>
<path class="st1" d="M52.9,83.6c0,0.5-0.4,0.9-0.9,0.9H38.3c-0.5,0-0.9-0.4-0.9-0.9l0,0c0-0.5,0.4-0.9,0.9-0.9H52
	C52.5,82.8,52.9,83.2,52.9,83.6L52.9,83.6z"/>
</svg>
