<?xml version="1.0" encoding="utf-8"?>
<!-- Generator: Adobe Illustrator 21.0.2, SVG Export Plug-In . SVG Version: 6.00 Build 0)  -->
<svg version="1.1" id="Layer_1" xmlns="http://www.w3.org/2000/svg" xmlns:xlink="http://www.w3.org/1999/xlink" x="0px" y="0px"
	 viewBox="0 0 90.7 98.3" style="enable-background:new 0 0 90.7 98.3;" xml:space="preserve">
<style type="text/css">
	.st0{fill:#FFFFFF;}
</style>
<g>
	<path class="st0" d="M53.3,80.9c0-0.3,0-0.7,0-1.2c2.7,0,5.7-3.7,7.5-6.9c5.3-0.7,13-7.1,13.1-14.3c0-2.7-1.1-4.1-2.1-4.8
		c-1.9-1.4-4.5-1.1-6.4-0.7c0.1-1.5,0.1-2.8,0-3.8c-1.3,0-2.9,0-4.6,0c0.6-1.2,1.4-2.4,2.2-3.1c0.4-1,5-11.4,5-11.4h0c0,0,0,0,0,0
		c0.4-0.9,0.4-1.8-0.5-2.2c0,0-0.2-0.1-0.3-0.1c-0.9-0.4-1.8,0.1-2.2,1c0,0,0,0,0,0l0,0c0,0-4.6,10.4-5,11.4c-0.1,1.3-0.4,3-1,4.5
		c-6.6,0-14.2,0-15.8,0c0,0-0.1,0-0.3,0c-1.9,0-12.1,0-18.8,0c-0.4,7,2.3,29.7,12.6,30.5c0,0.5,0,0.9,0,1.2H16.8v3.8h57.1v-3.8H53.3
		z M31.5,70.6c-2.2-5.1-3.8-19.1-3.8-19.1s4.5,12.5,5.6,16c1,3.5,5.5,8.4,5.5,8.4S33.7,75.8,31.5,70.6z M65.2,57.1
		c2.2-0.7,3.7-0.8,4.3-0.3c0.4,0.3,0.5,1.1,0.5,1.7c0,4-3.8,7.8-7.1,9.5C64.1,64.4,64.8,60.6,65.2,57.1z"/>
	<path class="st0" d="M44.9,18.4L44.9,18.4L44.9,18.4C44.9,18.5,44.9,18.5,44.9,18.4z"/>
	<path class="st0" d="M33.1,30.3c0.3,0.5,0.5,0.7,0.7,1l0.6,0.8c0.1,0.3,0.3,0.5,0.4,0.7c0.2,0.5,0.4,1.1,0.5,1.7
		c0.2,1.2,0.2,2.5,0.1,3.6c-0.1,2.2-0.4,3.8-0.4,3.8s1.2-1.2,2.1-3.4c0.2-0.6,0.5-1.2,0.6-1.9c0.2-0.7,0.3-1.5,0.3-2.3
		c0-0.8-0.1-1.7-0.4-2.6c-0.1-0.5-0.4-0.9-0.6-1.3c-0.1-0.2-0.3-0.4-0.4-0.6l-0.2-0.3l-0.1-0.1l0,0c0,0,0,0,0.1,0.1l0,0l0-0.1
		c-0.2-0.3-0.6-0.7-0.6-0.8c-0.1-0.2-0.2-0.4-0.3-0.7c-0.2-0.5-0.4-1.1-0.5-1.7c-0.2-1.2-0.2-2.5-0.1-3.6c0.1-2.2,0.3-3.9,0.3-3.9
		S34,19.8,33,22.1c-0.5,1.1-0.9,2.5-0.9,4.2c0,0.8,0,1.7,0.4,2.6C32.6,29.3,32.8,29.8,33.1,30.3z"/>
	<path class="st0" d="M40.1,22.4c0.3,0.5,0.5,0.7,0.7,1l0.6,0.8c0.1,0.3,0.3,0.5,0.4,0.7c0.2,0.5,0.4,1.1,0.5,1.7
		c0.2,1.2,0.2,2.5,0.1,3.6c-0.1,2.2-0.4,3.8-0.4,3.8s1.2-1.2,2.1-3.4c0.2-0.6,0.5-1.2,0.6-1.9c0.2-0.7,0.3-1.5,0.3-2.3
		c0-0.8-0.1-1.7-0.4-2.6c-0.1-0.5-0.4-0.9-0.6-1.3c-0.1-0.2-0.3-0.4-0.4-0.6l-0.2-0.3l-0.1-0.1l0,0c0,0,0,0,0.1,0.1l0-0.1
		c-0.2-0.3-0.6-0.7-0.6-0.8c-0.1-0.2-0.2-0.4-0.3-0.7c-0.2-0.5-0.4-1.1-0.5-1.7c-0.2-1.2-0.2-2.5-0.1-3.6c0.1-2.2,0.3-3.9,0.3-3.9
		S41,11.9,40,14.2c-0.5,1.1-0.9,2.6-0.9,4.2c0,0.8,0,1.7,0.4,2.6C39.6,21.4,39.8,21.9,40.1,22.4z"/>
	<path class="st0" d="M48.8,29.6c0.3,0.5,0.5,0.7,0.7,1l0.6,0.8c0.1,0.3,0.3,0.5,0.4,0.7c0.2,0.5,0.4,1.1,0.5,1.7
		c0.2,1.2,0.2,2.5,0.1,3.6c-0.1,2.2-0.4,3.9-0.4,3.9s1.2-1.1,2.1-3.4c0.2-0.6,0.5-1.2,0.6-1.9c0.2-0.7,0.3-1.5,0.3-2.3
		c0-0.8-0.1-1.7-0.4-2.6c-0.1-0.5-0.4-0.9-0.6-1.3c-0.1-0.2-0.3-0.4-0.4-0.6l-0.2-0.3L52,28.6l0,0c0,0,0,0,0.1,0.1l0,0l0-0.1
		c-0.2-0.3-0.6-0.7-0.6-0.8c-0.1-0.2-0.2-0.4-0.3-0.7c-0.2-0.5-0.4-1.1-0.5-1.7c-0.2-1.2-0.2-2.5-0.1-3.6c0.1-2.2,0.3-3.9,0.3-3.9
		s-1.2,1.2-2.1,3.4c-0.5,1.1-0.9,2.5-0.9,4.2c0,0.8,0,1.7,0.4,2.6C48.2,28.6,48.5,29.1,48.8,29.6z"/>
</g>
</svg>
