<?xml version="1.0" encoding="utf-8"?>
<!-- Generator: Adobe Illustrator 21.0.2, SVG Export Plug-In . SVG Version: 6.00 Build 0)  -->
<svg version="1.1" id="Layer_1" xmlns="http://www.w3.org/2000/svg" xmlns:xlink="http://www.w3.org/1999/xlink" x="0px" y="0px"
	 viewBox="0 0 90.7 98.3" style="enable-background:new 0 0 90.7 98.3;" xml:space="preserve">
<style type="text/css">
	.st0{fill:#FFFFFF;}
</style>
<g>
	<path class="st0" d="M61.3,51.7c-5.4-1.9-5.5-3.8-5.5-3.8C45.1,68.9,37,47.9,37,47.9c-0.7,2.8-11.8,6.2-11.8,6.2
		c-3.2,1.2-4.6,3.1-4.6,3.1c-4.8,7.1-5.3,22.8-5.3,22.8c0.1,3.6,1.6,4,1.6,4c10.9,4.9,28.1,5.8,28.1,5.8c17.6,0.4,30.5-5,30.5-5
		c1.9-1.2,1.9-2.1,1.9-2.1c1.3-11.3-4.3-23.9-4.3-23.9C71.5,54.9,61.3,51.7,61.3,51.7z"/>
	<path class="st0" d="M34.3,36.7c0.8,6.8,6.7,13.8,11.9,13.8c6.1,0,11.9-7.4,12.8-13.8c0.3-0.2,0.9-0.8,1.1-2.2c0,0,1.3-4.6-0.4-4.1
		c0.6-1.8,2.6-8.8-1.3-13.1c0,0-1.8-2.5-6.2-3.8c-0.2-0.1-0.3-0.3-0.5-0.4c0,0,0.1,0.1,0.2,0.3c-0.2-0.1-0.5-0.1-0.8-0.2
		c-0.2-0.2-0.5-0.5-0.8-0.8c0,0,0.3,0.3,0.6,0.7c-0.1,0-0.2-0.1-0.3-0.1c-0.2-0.3-0.4-0.6-0.7-0.9c0,0,0.1,0.2,0.3,0.6
		c-0.8-0.6-2.4-2-2.4-3.5c0,0-1,0.5-1.6,1.3c0.2-0.7,0.6-1.4,1.3-1.9c0,0-0.7,0.3-1.3,1.1c-0.5,0.3-1.6,1-1.9,2.3l-0.3-0.2
		c0.2-0.4,0.4-0.8,0.7-1.2c0,0-0.5,0.4-0.9,1.1L43,11.5c0.2-0.4,0.5-0.8,0.9-1.2c0,0-0.4,0.3-0.8,0.8c0.1-0.5,0.1-1-1.3,0.6
		c0,0-6.4,2.8-8.3,8.5c0,0-1.1,2.6,0.4,10.2c-2.1-1-0.7,4.1-0.7,4.1C33.4,35.9,34,36.4,34.3,36.7z M45.9,10c-0.3,0.4-0.6,1-0.7,1.6
		L45,11.6C45.2,11,45.5,10.5,45.9,10z"/>
</g>
</svg>
