<?xml version="1.0" encoding="utf-8"?>
<!-- Generator: Adobe Illustrator 21.0.2, SVG Export Plug-In . SVG Version: 6.00 Build 0)  -->
<svg version="1.1" id="Layer_1" xmlns="http://www.w3.org/2000/svg" xmlns:xlink="http://www.w3.org/1999/xlink" x="0px" y="0px"
	 viewBox="0 0 90.7 98.3" style="enable-background:new 0 0 90.7 98.3;" xml:space="preserve">
<style type="text/css">
	.st0{fill:#FFFFFF;}
</style>
<g>
	<path class="st0" d="M11.4,28.5v7.1c0.5-0.1,11.5-2.4,20.2,3.7v-13L11.4,28.5z"/>
	<polygon class="st0" points="11.4,78.5 31.6,76.3 31.6,63.3 11.4,64.7 	"/>
	<path class="st0" d="M11.4,37.7V62l20.2-1.4V42.1C23.5,35.3,11.5,37.7,11.4,37.7z"/>
	<path class="st0" d="M34.5,45.1V61l0.1-0.6l20.1,4.2v-8.7c-0.8,0-1.5,0.1-2.2,0.1C44,55.9,41.2,52.9,34.5,45.1z"/>
	<polygon class="st0" points="34.5,76.3 54.7,82.9 54.7,67.3 34.5,63.1 	"/>
	<path class="st0" d="M35.5,42.9c7.6,8.9,9.7,11.3,19.2,10.8V32.9l-20.2-6.6v15.6c0.3,0.3,0.6,0.6,0.8,0.9L35.5,42.9z"/>
	<polygon class="st0" points="57.3,82.9 77.5,78.5 77.5,63.4 57.3,67.4 	"/>
	<path class="st0" d="M74.6,51.7c0,3.4-2.8,6.2-6.2,6.2c-2.5,0-4.7-1.5-5.6-3.6l-5.3,1.4c-0.1,0-0.2,0-0.3,0v9l20.2-4V50.2L74.6,51
		C74.6,51.2,74.6,51.4,74.6,51.7z"/>
	<path class="st0" d="M73.9,48.9l3.2-0.9l0.3,0V30.9C75.1,36.5,72.7,42.1,71,46C72.3,46.6,73.3,47.6,73.9,48.9z"/>
	<path class="st0" d="M62.3,51.7c0-2.7,1.7-5,4.2-5.8c-1.4-3.7-3.3-8.7-5.1-13.8l-4,0.9v20.6l5-1.4C62.3,51.9,62.3,51.8,62.3,51.7z"
		/>
	<path class="st0" d="M31.6,39.3v2.8c0.7,0.6,1.4,1.3,2.1,2l0.1,0.2c0.2,0.3,0.5,0.5,0.7,0.8v-3.3C33.6,40.9,32.6,40,31.6,39.3z"/>
	<path class="st0" d="M57.2,53.5c-0.9,0.1-1.7,0.1-2.4,0.2v2.2c0.8,0,1.6-0.1,2.5-0.2L57.2,53.5L57.2,53.5z"/>
	<path class="st0" d="M68.5,54.7c1.6,0,3-1.3,3-3c0-1.2-0.7-2.3-1.8-2.7c-0.7,1.7-1.2,2.7-1.2,2.7s-0.4-1.1-1-2.8
		c-1.2,0.4-2,1.5-2,2.8C65.5,53.3,66.9,54.7,68.5,54.7z"/>
	<path class="st0" d="M69.2,11.1c-5.6,0-10.1,4.5-10.1,10.1c0,1.1,0.2,2.1,0.5,3.1c0.7,2.5,9,24.5,9,24.5s8.8-20.2,10.1-24.1
		c0.4-1.1,0.6-2.3,0.6-3.5C79.3,15.6,74.8,11.1,69.2,11.1z M69.2,27.7c-3.6,0-6.4-2.9-6.4-6.4c0-3.6,2.9-6.4,6.4-6.4
		c3.6,0,6.4,2.9,6.4,6.4C75.6,24.8,72.8,27.7,69.2,27.7z"/>
	<path class="st0" d="M69.2,16.5c-2.6,0-4.7,2.1-4.7,4.7c0,2.6,2.1,4.7,4.7,4.7c2.6,0,4.7-2.1,4.7-4.7
		C73.9,18.6,71.8,16.5,69.2,16.5z"/>
</g>
</svg>
