<?xml version="1.0" encoding="utf-8"?>
<!-- Generator: Adobe Illustrator 21.0.2, SVG Export Plug-In . SVG Version: 6.00 Build 0)  -->
<svg version="1.1" id="Layer_1" xmlns="http://www.w3.org/2000/svg" xmlns:xlink="http://www.w3.org/1999/xlink" x="0px" y="0px"
	 viewBox="0 0 90.7 98.3" style="enable-background:new 0 0 90.7 98.3;" xml:space="preserve">
<style type="text/css">
	.st0{fill:#FFFFFF;}
</style>
<g>
	<path class="st0" d="M35.8,23.3c-6.6-6.6-18-10.5-22.7-5.8c-4.7,4.7-0.7,16.1,5.8,22.7c5.4,5.4,11.1,6.1,15.5,3.6l39.1,39.1
		c1.4,1.4,3.6,1.4,5,0c1.4-1.4,1.4-3.6,0-5L39.4,38.8C41.9,34.4,41.2,28.6,35.8,23.3z"/>
	<g>
		<path class="st0" d="M37.9,51.3L11.1,78.1c-1.4,1.4-1.4,3.6,0,5c1.4,1.4,3.6,1.4,5,0l26.8-26.8L37.9,51.3z"/>
		<polygon class="st0" points="78.4,23.8 63.3,38.9 61.7,38.7 61.5,37.2 76.6,22.1 77.1,20 75.1,20.5 60,35.6 58.7,35.4 58.5,34.1 
			73.7,19 74.2,17 72.1,17.5 56.9,32.7 55.5,32.4 55.3,30.8 70.4,15.7 70.6,13.5 68.5,13.9 49.6,32.8 49.7,39.2 49.9,39.3 
			46.9,42.2 51.9,47.2 54.8,44.3 54.9,44.4 61.3,44.6 80.3,25.6 80.6,23.5 		"/>
	</g>
</g>
</svg>
