<?xml version="1.0" encoding="utf-8"?>
<!-- Generator: Adobe Illustrator 21.0.2, SVG Export Plug-In . SVG Version: 6.00 Build 0)  -->
<svg version="1.1" id="Layer_1" xmlns="http://www.w3.org/2000/svg" xmlns:xlink="http://www.w3.org/1999/xlink" x="0px" y="0px"
	 viewBox="0 0 90.7 98.3" style="enable-background:new 0 0 90.7 98.3;" xml:space="preserve">
<style type="text/css">
	.st0{fill:none;stroke:#FFFFFF;stroke-miterlimit:10;}
	.st1{fill:#FFFFFF;}
</style>
<path class="st0" d="M64.1,28c-0.3-2.2-3.6,0-3.6,0c0-17.9-13.8-18.7-13.8-18.7S33,10.1,33,28c0,0-3.3-2.2-3.6,0
	c-0.3,2.2,1.4,8.5,3.6,8.8s2.2,0.3,2.2,0.3s0,3.3,1.7,4.7c1.7,1.4,5,6.6,9.9,6.6s8.3-5.2,9.9-6.6c1.7-1.4,1.7-4.7,1.7-4.7
	s0,0,2.2-0.3C62.8,36.5,64.4,30.2,64.1,28z"/>
<path class="st1" d="M53.7,20c0,0-1.4,6.9-8.9,7.4c-7.5,0.5-11.6,1.1-11.6,1.1L30.5,27c0,0-1-21.1,15.6-21.1s17.5,20.4,17.5,20.4
	l-3,1.7C60.6,28,52.8,26.1,53.7,20z"/>
<path class="st1" d="M79.5,68.3c-2.3-4.1-10.2-18-16.2-18l-16.4,5.8l-16.4-5.8c-5.9,0-13.9,13.8-16.2,18s-1.2,10.9-1.2,15.3
	s6,5.8,6,5.8h27.7H47h27.7c0,0,6-1.4,6-5.8S81.8,72.4,79.5,68.3z M46.8,88.5l-7.6-5.8L45,56.1l1.9,1.7l2.4-1.7l5.4,26.8L46.8,88.5z"
	/>
</svg>
