<?xml version="1.0" encoding="utf-8"?>
<!-- Generator: Adobe Illustrator 21.0.2, SVG Export Plug-In . SVG Version: 6.00 Build 0)  -->
<svg version="1.1" id="Layer_1" xmlns="http://www.w3.org/2000/svg" xmlns:xlink="http://www.w3.org/1999/xlink" x="0px" y="0px"
	 viewBox="0 0 90.7 98.3" style="enable-background:new 0 0 90.7 98.3;" xml:space="preserve">
<style type="text/css">
	.st0{fill:#FFFFFF;}
</style>
<path class="st0" d="M45.3,76.6H7c0,0,0,0.2,0,2.5s3.1,5.1,5.6,5.1c2.5,0,32.7,0,32.7,0s30.3,0,32.7,0c2.5,0,5.6-2.8,5.6-5.1
	s0-2.5,0-2.5H45.3z"/>
<path class="st0" d="M39,34c0,0-7.3,0.3-16,7.5S14.7,57,14.7,57s-1.1,8.8,3,11.9C21.9,72,29,71.5,29,71.5s27.1,0,33.4,0
	s11.1-1.8,11.2-9c0.1-7.1-0.4-13-7.1-19.7C64.9,48.2,62,57.2,57.9,60s-8.5,4.3-13.7,1.9c-5.2-2.4-3.3-2.1-3.3-2.1l1.8-2.5
	c0,0,3.1,3.6,9.4,2.3s9.1-10.4,9.6-11.6c0.5-1.2,3.9-15.6,7.2-17.6c3.4-2.1,4.6-3.1,8.5-3s2.3-5.3,0-4.9c-2.3,0.4-4,1.1-4,1.1
	s1.1-1.8,1.2-3.9c0.1-2.1-4.5-3.6-4.8,0c-0.2,3.6-0.8,8-5.3,10.9s-9.8,4.2-13.3,5c-3.5,0.8-7.9,0.9-8.8,1.6s-2.1,1.6-2.9,0.5
	C38.7,36.8,39,34,39,34z"/>
</svg>
