<?xml version="1.0" encoding="utf-8"?>
<!-- Generator: Adobe Illustrator 21.0.2, SVG Export Plug-In . SVG Version: 6.00 Build 0)  -->
<svg version="1.1" id="Layer_1" xmlns="http://www.w3.org/2000/svg" xmlns:xlink="http://www.w3.org/1999/xlink" x="0px" y="0px"
	 viewBox="0 0 90.7 98.3" style="enable-background:new 0 0 90.7 98.3;" xml:space="preserve">
<style type="text/css">
	.st0{fill:none;stroke:#FFFFFF;stroke-width:2;stroke-miterlimit:10;}
</style>
<g>
	<path class="st0" d="M27.7,61.2c-2.2-3.8-3.6-9.2-4.4-14.3C15,46.8,7.3,48,7.3,48s12.2,15.9,22.5,20c4.7,1.9,8.4,1,11.1-0.4
		C37.6,68.1,31.7,67.9,27.7,61.2z"/>
	<path class="st0" d="M66.7,46.9c-0.8,5.2-2.2,10.6-4.4,14.3c-4,6.6-9.9,6.8-13.1,6.4c2.6,1.5,6.3,2.3,11.1,0.4
		c10.3-4.1,22.5-20,22.5-20S75,46.8,66.7,46.9z"/>
	<path class="st0" d="M40.8,67.6c1.4-0.2,2.3-0.5,2.3-0.5s0.4-0.3,0.9-0.9c-0.2-0.1-0.5-0.2-0.8-0.3C42.6,66.5,41.8,67.1,40.8,67.6z
		"/>
	<path class="st0" d="M35.3,48.3c0.4-2.1,1.1-4.3,1.8-6.4C30.2,36.1,22,31.7,22,31.7s0,7.3,1.3,15.2"/>
	<path class="st0" d="M23.3,46.9c0.8,5.2,2.2,10.6,4.4,14.3c4,6.6,9.9,6.8,13.1,6.4c0.9-0.5,1.7-1.1,2.4-1.7
		c-2.9-1.1-8.5-4.2-8.5-12.4c0-1.6,0.2-3.4,0.6-5.2"/>
	<path class="st0" d="M66.7,46.9C68,39,68,31.7,68,31.7S59.8,36.1,52.8,42c0.7,2.1,1.4,4.3,1.8,6.4"/>
	<path class="st0" d="M46,66.1c0.5,0.6,0.9,0.9,0.9,0.9s0.9,0.3,2.3,0.5c-1-0.5-1.8-1.2-2.4-1.7C46.5,66,46.2,66,46,66.1z"/>
	<path class="st0" d="M54.6,48.4c0.4,1.8,0.6,3.5,0.6,5.2c0,8.1-5.5,11.3-8.4,12.4c0.7,0.6,1.5,1.2,2.4,1.7
		c3.2,0.5,9.1,0.3,13.1-6.4c2.2-3.8,3.6-9.2,4.4-14.3"/>
	<path class="st0" d="M52.8,42c-3-8.7-7.8-16.8-7.8-16.8s-4.8,8-7.8,16.7"/>
</g>
</svg>
