<?xml version="1.0" encoding="utf-8"?>
<!-- Generator: Adobe Illustrator 21.0.2, SVG Export Plug-In . SVG Version: 6.00 Build 0)  -->
<svg version="1.1" id="Layer_1" xmlns="http://www.w3.org/2000/svg" xmlns:xlink="http://www.w3.org/1999/xlink" x="0px" y="0px"
	 viewBox="0 0 90.7 98.3" style="enable-background:new 0 0 90.7 98.3;" xml:space="preserve">
<style type="text/css">
	.st0{fill:#FFFFFF;}
</style>
<g>
	<rect x="35" y="42.7" class="st0" width="7.4" height="6.6"/>
	<rect x="46.5" y="42.7" class="st0" width="7.4" height="6.6"/>
	<rect x="58.2" y="42.7" class="st0" width="7.4" height="6.6"/>
	<rect x="35" y="53.1" class="st0" width="7.4" height="6.6"/>
	<rect x="46.5" y="53.1" class="st0" width="7.4" height="6.6"/>
	<rect x="58.2" y="53.1" class="st0" width="7.4" height="6.6"/>
	<rect x="35" y="63.8" class="st0" width="7.4" height="6.6"/>
	<rect x="23.2" y="53.1" class="st0" width="7.4" height="6.6"/>
	<rect x="23.2" y="63.8" class="st0" width="7.4" height="6.6"/>
	<rect x="46.5" y="63.8" class="st0" width="7.4" height="6.6"/>
	<rect x="58.2" y="63.8" class="st0" width="7.4" height="6.6"/>
	<path class="st0" d="M77.4,21.6l-9.3,0v5.9h-8.9v-5.9l-28.3,0v6.1H22v-6.1l-10.6,0v59.1h4.7h56.7l4.7,0L77.4,21.6z M72.8,76.1H16.1
		V38.3h56.7V76.1z"/>
	<rect x="23.8" y="17" class="st0" width="5.6" height="9.2"/>
	<rect x="60.8" y="17" class="st0" width="5.6" height="9.2"/>
</g>
</svg>
