<?xml version="1.0" encoding="utf-8"?>
<!-- Generator: Adobe Illustrator 21.0.2, SVG Export Plug-In . SVG Version: 6.00 Build 0)  -->
<svg version="1.1" id="Layer_1" xmlns="http://www.w3.org/2000/svg" xmlns:xlink="http://www.w3.org/1999/xlink" x="0px" y="0px"
	 viewBox="0 0 90.7 98.3" style="enable-background:new 0 0 90.7 98.3;" xml:space="preserve">
<style type="text/css">
	.st0{fill:#FFFFFF;}
</style>
<path class="st0" d="M81.4,67c-1-2.1-6.8-10.3-15.4-15.4c0.1,1.6-0.4,5.5-0.4,5.5s-3.7-7.4-4.9-7.8c-3.6-1.2-9.2-2.1-14.1-2.4
	c1.5,1.7,4.2,11,4.2,11s-9.2-11-10.6-10.9c-4.2,0.3-10.5,2.2-13.8,3.3c3.2,1.2,11.4,12.4,11.4,12.4S22.7,53.4,20,53.7
	C12,59.1,8.4,66,7.5,68c-1.6,3.5-0.7,14.4,5.8,14.4c6.5,0,31.4,0,31.4,0s24.9,0,31.4,0C82.6,82.4,83,70.5,81.4,67z"/>
<path class="st0" d="M51.3,10.5c0,0-2.2,3-2.2,7.6c0,4.5,4.9,10.8,4.9,14.5c0,3.7-4.3,9.6-4.3,9.6s2.5-6,0.8-9.4
	c-1.2-2.4-5.1-7.9-5.1-13.8C45.4,12.6,51.3,10.5,51.3,10.5z"/>
<path class="st0" d="M40.1,23.8c0,0-0.3,2.7,0.3,4.9c0.6,2.2,3.1,7,3.1,9.2s-2.2,5.7-2.2,5.7s-0.3-3-1.4-5c-1.1-2-3.4-5.2-3.4-8.7
	C36.7,26.2,40.1,23.8,40.1,23.8z"/>
</svg>
