<?xml version="1.0" encoding="utf-8"?>
<!-- Generator: Adobe Illustrator 21.0.2, SVG Export Plug-In . SVG Version: 6.00 Build 0)  -->
<svg version="1.1" id="Layer_1" xmlns="http://www.w3.org/2000/svg" xmlns:xlink="http://www.w3.org/1999/xlink" x="0px" y="0px"
	 viewBox="0 0 90.7 98.3" style="enable-background:new 0 0 90.7 98.3;" xml:space="preserve">
<style type="text/css">
	.st0{fill:#FFFFFF;}
</style>
<path class="st0" d="M15.4,24.2v58.2c0,1.6,1.3,2.8,2.8,2.8h54.2c1.6,0,2.8-1.3,2.8-2.8V24.2H15.4z M71.4,63.2H19.1V28h52.3V63.2z"
	/>
<path class="st0" d="M72.4,13.2H18.3c-1.6,0-2.8,1.3-2.8,2.8v6.2h59.8V16C75.3,14.4,74,13.2,72.4,13.2z M23.4,20.8
	c-1.7,0-3.2-1.4-3.2-3.2s1.4-3.2,3.2-3.2c1.7,0,3.2,1.4,3.2,3.2S25.2,20.8,23.4,20.8z M40.1,20H28.9v-3.8h11.2V20z M48.9,19.7
	c-1.1,0-2-0.9-2-2s0.9-2,2-2s2,0.9,2,2S50,19.7,48.9,19.7z M57.6,19.7c-1.1,0-2-0.9-2-2s0.9-2,2-2s2,0.9,2,2S58.7,19.7,57.6,19.7z
	 M66.2,19.7c-1.1,0-2-0.9-2-2s0.9-2,2-2s2,0.9,2,2S67.4,19.7,66.2,19.7z"/>
</svg>
