<?xml version="1.0" encoding="utf-8"?>
<!-- Generator: Adobe Illustrator 21.0.2, SVG Export Plug-In . SVG Version: 6.00 Build 0)  -->
<svg version="1.1" id="Layer_1" xmlns="http://www.w3.org/2000/svg" xmlns:xlink="http://www.w3.org/1999/xlink" x="0px" y="0px"
	 viewBox="0 0 90.7 98.3" style="enable-background:new 0 0 90.7 98.3;" xml:space="preserve">
<style type="text/css">
	.st0{fill:#FFFFFF;}
</style>
<g>
	<polygon class="st0" points="73.5,19 68.3,32.2 69,32.5 	"/>
	<polygon class="st0" points="26.3,30.4 24,30.4 10.7,30.4 14.7,86.1 24,86.1 26.3,86.1 35.6,86.1 39.5,30.4 	"/>
	<path class="st0" d="M33.1,21.6c-5.7,0-8,0-8,0s-2.3,0-8,0s-6.4,7.9-6.4,7.9h14.4h14.4C39.5,29.5,38.8,21.6,33.1,21.6z"/>
	<polygon class="st0" points="30.2,8.2 25.1,8.2 20,8.2 18.3,20.8 25.1,20.8 32,20.8 	"/>
	<path class="st0" d="M83.5,34.3H72.3c0.1,0.2,0.1,0.5,0.1,0.7c0,1.9-2.2,3.4-4.9,3.4c-2.7,0-4.9-1.5-4.9-3.4c0-0.2,0-0.5,0.1-0.7
		h-0.9H40.3c0,0,20.4,20,20.6,23.1c0.2,3.1,0.5,26.9,0.5,26.9l-12.1,1.7h12.5h12.5l-12.1-1.7c0,0,0.2-23.8,0.5-26.9
		S83.5,34.3,83.5,34.3z"/>
	<g>
		<ellipse class="st0" cx="67.5" cy="35" rx="4.3" ry="3"/>
	</g>
</g>
</svg>
