<?xml version="1.0" encoding="utf-8"?>
<!-- Generator: Adobe Illustrator 16.0.0, SVG Export Plug-In . SVG Version: 6.00 Build 0)  -->
<!DOCTYPE svg PUBLIC "-//W3C//DTD SVG 1.1//EN" "http://www.w3.org/Graphics/SVG/1.1/DTD/svg11.dtd">
<svg version="1.1" id="Social_Icons" xmlns="http://www.w3.org/2000/svg" xmlns:xlink="http://www.w3.org/1999/xlink" x="0px"
	 y="0px" width="255.121px" height="136.061px" viewBox="0 0 255.121 136.061" enable-background="new 0 0 255.121 136.061"
	 xml:space="preserve">
<g id="_x37__stroke">
	<g id="Instagram_1_">
		<path id="Instagram" fill="#FFFFFF" d="M172.04,31.716c0,4.51-3.656,8.164-8.164,8.164s-8.164-3.654-8.164-8.164
			c0-4.509,3.656-8.163,8.164-8.163C168.384,23.552,172.04,27.207,172.04,31.716z M127.561,90.706
			c-12.523,0-22.676-10.152-22.676-22.677c0-12.523,10.152-22.677,22.676-22.677s22.677,10.153,22.677,22.677
			C150.237,80.554,140.084,90.706,127.561,90.706z M127.561,33.094c-19.294,0-34.935,15.641-34.935,34.935
			c0,19.294,15.641,34.935,34.935,34.935s34.936-15.641,34.936-34.935C162.496,48.735,146.854,33.094,127.561,33.094z
			 M127.561,12.259c18.165,0,20.316,0.068,27.489,0.396c6.635,0.304,10.235,1.41,12.633,2.344c3.176,1.232,5.44,2.708,7.822,5.089
			c2.381,2.38,3.854,4.646,5.089,7.822c0.933,2.396,2.041,6,2.345,12.633c0.326,7.174,0.396,9.325,0.396,27.49
			c0,18.165-0.069,20.315-0.396,27.489c-0.304,6.633-1.412,10.234-2.345,12.633c-1.233,3.176-2.708,5.441-5.089,7.822
			c-2.38,2.381-4.646,3.855-7.822,5.09c-2.396,0.932-5.998,2.039-12.633,2.344c-7.173,0.326-9.324,0.395-27.489,0.395
			c-18.166,0-20.316-0.068-27.491-0.395c-6.633-0.305-10.234-1.412-12.632-2.344c-3.175-1.234-5.44-2.709-7.822-5.09
			c-2.38-2.381-3.854-4.646-5.089-7.822c-0.931-2.396-2.04-6-2.343-12.633c-0.328-7.174-0.396-9.326-0.396-27.489
			c0-18.165,0.068-20.316,0.396-27.49c0.303-6.633,1.411-10.235,2.343-12.633c1.234-3.176,2.708-5.441,5.089-7.822
			s4.646-3.855,7.822-5.089c2.397-0.933,6-2.04,12.632-2.344C107.245,12.327,109.396,12.259,127.561,12.259z M127.561,0
			c-18.476,0-20.793,0.079-28.048,0.409c-7.241,0.331-12.187,1.48-16.514,3.162c-4.475,1.737-8.269,4.064-12.051,7.848
			c-3.781,3.782-6.108,7.575-7.847,12.05c-1.682,4.327-2.832,9.272-3.162,16.513c-0.331,7.256-0.41,9.573-0.41,28.05
			c0,18.476,0.079,20.792,0.41,28.048c0.331,7.24,1.48,12.186,3.162,16.514c1.738,4.475,4.065,8.268,7.847,12.049
			c3.782,3.783,7.576,6.109,12.051,7.848c4.328,1.682,9.271,2.832,16.514,3.162c7.255,0.33,9.573,0.41,28.048,0.41
			c18.476,0,20.794-0.08,28.05-0.41c7.24-0.33,12.186-1.48,16.514-3.162c4.473-1.738,8.268-4.064,12.049-7.848
			c3.782-3.781,6.107-7.574,7.848-12.049c1.683-4.328,2.832-9.273,3.162-16.514c0.33-7.256,0.409-9.572,0.409-28.048
			c0-18.477-0.079-20.794-0.409-28.05c-0.33-7.239-1.479-12.186-3.162-16.513c-1.74-4.475-4.064-8.268-7.848-12.05
			c-3.781-3.782-7.576-6.108-12.049-7.848c-4.328-1.682-9.273-2.831-16.514-3.162C148.354,0.079,146.037,0,127.561,0z"/>
	</g>
</g>
</svg>
