<?xml version="1.0" encoding="utf-8"?>
<!-- Generator: Adobe Illustrator 16.0.0, SVG Export Plug-In . SVG Version: 6.00 Build 0)  -->
<!DOCTYPE svg PUBLIC "-//W3C//DTD SVG 1.1//EN" "http://www.w3.org/Graphics/SVG/1.1/DTD/svg11.dtd">
<svg version="1.1" id="Social_Icons" xmlns="http://www.w3.org/2000/svg" xmlns:xlink="http://www.w3.org/1999/xlink" x="0px"
	 y="0px" width="255.121px" height="136.061px" viewBox="0 0 255.121 136.061" enable-background="new 0 0 255.121 136.061"
	 xml:space="preserve">
<g id="_x37__stroke">
	<g id="Instagram_1_">
		<rect x="59.53" y="0" fill="#FFFFFF" width="136.061" height="136.061"/>
		<path id="Instagram" fill="#FFFFFF" d="M172.039,31.716c0,4.51-3.656,8.164-8.164,8.164s-8.164-3.654-8.164-8.164
			c0-4.509,3.656-8.163,8.164-8.163C168.383,23.552,172.039,27.207,172.039,31.716z M127.56,90.707
			c-12.524,0-22.676-10.153-22.676-22.677s10.152-22.677,22.676-22.677c12.523,0,22.676,10.153,22.676,22.677
			S140.083,90.707,127.56,90.707z M127.56,33.095c-19.294,0-34.935,15.641-34.935,34.935s15.641,34.935,34.935,34.935
			s34.935-15.641,34.935-34.935S146.854,33.095,127.56,33.095z M127.56,12.259c18.165,0,20.316,0.068,27.489,0.396
			c6.634,0.303,10.235,1.41,12.632,2.343c3.176,1.233,5.441,2.708,7.823,5.089c2.381,2.38,3.854,4.646,5.089,7.822
			c0.932,2.397,2.041,6,2.344,12.633c0.326,7.174,0.396,9.325,0.396,27.49s-0.07,20.316-0.396,27.489
			c-0.303,6.633-1.411,10.235-2.344,12.633c-1.234,3.175-2.708,5.441-5.089,7.822c-2.38,2.381-4.646,3.855-7.823,5.09
			c-2.396,0.931-5.998,2.039-12.632,2.343c-7.173,0.327-9.324,0.396-27.489,0.396c-18.166,0-20.317-0.069-27.491-0.396
			c-6.633-0.304-10.235-1.411-12.632-2.343c-3.175-1.234-5.441-2.709-7.822-5.09c-2.38-2.38-3.855-4.646-5.089-7.822
			c-0.931-2.397-2.04-6-2.343-12.633c-0.328-7.174-0.396-9.325-0.396-27.489c0-18.165,0.069-20.316,0.396-27.49
			c0.303-6.633,1.411-10.235,2.343-12.633c1.234-3.175,2.708-5.441,5.089-7.822c2.38-2.381,4.646-3.855,7.822-5.089
			c2.397-0.932,6-2.04,12.632-2.343C107.244,12.327,109.395,12.259,127.56,12.259z M127.56,0c-18.476,0-20.793,0.079-28.048,0.409
			C92.271,0.74,87.325,1.89,82.998,3.572c-4.474,1.737-8.268,4.064-12.05,7.847c-3.782,3.782-6.109,7.575-7.847,12.05
			c-1.682,4.327-2.832,9.272-3.162,16.513c-0.331,7.256-0.41,9.573-0.41,28.049s0.079,20.793,0.41,28.049
			c0.331,7.24,1.48,12.186,3.162,16.513c1.738,4.475,4.065,8.268,7.847,12.05c3.782,3.782,7.576,6.108,12.05,7.847
			c4.328,1.682,9.272,2.832,16.514,3.163c7.255,0.33,9.573,0.409,28.048,0.409s20.793-0.079,28.049-0.409
			c7.24-0.331,12.186-1.481,16.514-3.163c4.473-1.738,8.268-4.064,12.049-7.847c3.782-3.782,6.107-7.575,7.848-12.05
			c1.682-4.327,2.831-9.272,3.162-16.513c0.33-7.256,0.409-9.573,0.409-28.049s-0.079-20.793-0.409-28.049
			c-0.331-7.24-1.48-12.186-3.162-16.513c-1.74-4.475-4.065-8.268-7.848-12.05c-3.781-3.782-7.576-6.108-12.049-7.847
			c-4.328-1.682-9.273-2.832-16.514-3.163C148.353,0.079,146.036,0,127.56,0z"/>
	</g>
</g>
</svg>
