<?xml version="1.0" encoding="utf-8"?>
<!-- Generator: Adobe Illustrator 21.0.2, SVG Export Plug-In . SVG Version: 6.00 Build 0)  -->
<svg version="1.1" id="Calque_1" xmlns="http://www.w3.org/2000/svg" xmlns:xlink="http://www.w3.org/1999/xlink" x="0px" y="0px"
	 viewBox="0 0 107 103" style="enable-background:new 0 0 107 103;" xml:space="preserve">
<style type="text/css">
	.st0{fill:#FFFFFF;}
</style>
<g>
	<path class="st0" d="M76,16.6c19.3,0,29.1,26.3,8.8,45.7C63.5,82.6,54.7,89,54.7,89s-8.9-6.3-30.1-26.6C4.3,43,14.1,16.6,33.4,16.6
		c19.3,0,21.3,19.1,21.3,19.1S56.6,16.6,76,16.6 M76,14.6c-12.8,0-18.7,7.8-21.3,13.9c-2.6-6.1-8.4-13.9-21.3-13.9
		c-9,0-16.7,5.4-20.2,14c-3.6,9-2.9,22.9,10,35.2c21.1,20.1,29.9,26.5,30.3,26.8l1.2,0.8l1.2-0.8c0.4-0.3,9.2-6.6,30.3-26.8
		c12.8-12.3,13.6-26.2,10-35.2C92.7,20,84.9,14.6,76,14.6L76,14.6z"/>
</g>
</svg>
