<?xml version="1.0" encoding="utf-8"?>
<!-- Generator: Adobe Illustrator 16.0.0, SVG Export Plug-In . SVG Version: 6.00 Build 0)  -->
<!DOCTYPE svg PUBLIC "-//W3C//DTD SVG 1.1//EN" "http://www.w3.org/Graphics/SVG/1.1/DTD/svg11.dtd">
<svg version="1.1" id="Social_Icons" xmlns="http://www.w3.org/2000/svg" xmlns:xlink="http://www.w3.org/1999/xlink" x="0px"
	 y="0px" width="255.121px" height="136.061px" viewBox="0 0 255.121 136.061" enable-background="new 0 0 255.121 136.061"
	 xml:space="preserve">
<g id="_x31__stroke">
	<g id="Skype_1_">
		<path id="Skype" fill="#FFFFFF" d="M161.566,99.318c-3,4.196-7.433,7.509-13.191,9.858c-5.688,2.334-12.503,3.524-20.271,3.524
			c-9.319,0-17.134-1.616-23.238-4.812c-4.36-2.318-7.952-5.457-10.68-9.354c-2.76-3.911-4.152-7.8-4.152-11.562
			c0-2.334,0.912-4.369,2.705-6.033c1.776-1.655,4.056-2.483,6.775-2.483c2.224,0,4.152,0.654,5.711,1.956
			c1.496,1.254,2.775,3.105,3.808,5.479c1.152,2.604,2.4,4.795,3.721,6.507c1.28,1.673,3.112,3.067,5.448,4.163
			c2.352,1.089,5.527,1.656,9.423,1.656c5.368,0,9.769-1.135,13.071-3.359c3.24-2.168,4.809-4.785,4.809-7.986
			c0-2.518-0.824-4.503-2.505-6.064c-1.776-1.624-4.104-2.886-6.927-3.77c-2.953-0.899-6.953-1.886-11.904-2.91
			c-6.744-1.419-12.463-3.101-17.007-5.017c-4.656-1.946-8.408-4.651-11.152-8.035c-2.784-3.445-4.2-7.761-4.2-12.831
			c0-4.825,1.479-9.188,4.408-12.941c2.896-3.729,7.136-6.646,12.599-8.627c5.384-1.963,11.784-2.957,19.04-2.957
			c5.792,0,10.888,0.662,15.143,1.972c4.278,1.311,7.88,3.075,10.711,5.261c2.856,2.208,4.983,4.551,6.312,6.995
			c1.345,2.469,2.033,4.921,2.033,7.295c0,2.288-0.896,4.368-2.664,6.175c-1.777,1.83-4.024,2.752-6.664,2.752
			c-2.399,0-4.287-0.583-5.584-1.719c-1.215-1.064-2.479-2.722-3.879-5.086c-1.617-3.028-3.576-5.418-5.824-7.106
			c-2.186-1.64-5.823-2.46-10.84-2.46c-4.64,0-8.432,0.915-11.24,2.735c-2.705,1.742-4.023,3.754-4.023,6.136
			c0,1.451,0.424,2.674,1.304,3.714c0.912,1.119,2.216,2.083,3.864,2.902c1.704,0.844,3.464,1.521,5.224,1.995
			c1.799,0.495,4.824,1.229,8.976,2.177c5.255,1.104,10.08,2.356,14.344,3.707c4.326,1.354,8.056,3.027,11.111,4.991
			c3.104,1.994,5.559,4.551,7.312,7.608c1.752,3.084,2.641,6.869,2.641,11.277C166.111,90.312,164.575,95.116,161.566,99.318z
			 M191.678,82.473c0.984-4.432,1.495-9.021,1.495-13.737c0-35.329-29.046-63.979-64.894-63.979c-3.776,0-7.48,0.323-11.095,0.938
			C111.385,2.09,104.52,0,97.168,0C76.377,0,59.53,16.608,59.53,37.112c0,6.847,1.888,13.249,5.168,18.771
			c-0.856,4.146-1.312,8.453-1.312,12.854c0,35.347,29.056,63.988,64.895,63.988c4.062,0,8.031-0.371,11.887-1.072
			c5.305,2.808,11.352,4.408,17.791,4.408c20.785,0,37.632-16.616,37.632-37.104C195.59,93.033,194.182,87.442,191.678,82.473z"/>
	</g>
</g>
</svg>
