<?xml version="1.0" encoding="utf-8"?>
<!-- Generator: Adobe Illustrator 16.0.0, SVG Export Plug-In . SVG Version: 6.00 Build 0)  -->
<!DOCTYPE svg PUBLIC "-//W3C//DTD SVG 1.1//EN" "http://www.w3.org/Graphics/SVG/1.1/DTD/svg11.dtd">
<svg version="1.1" id="Social_Icons" xmlns="http://www.w3.org/2000/svg" xmlns:xlink="http://www.w3.org/1999/xlink" x="0px"
	 y="0px" width="255.121px" height="136.061px" viewBox="0 0 255.121 136.061" enable-background="new 0 0 255.121 136.061"
	 xml:space="preserve">
<g id="_x31__stroke">
	<g id="Skype_1_">
		<rect x="59.53" y="0" fill="#FFFFFF" width="136.061" height="136.061"/>
		<path id="Skype" fill="#FFFFFF" d="M161.566,99.318c-2.999,4.196-7.432,7.508-13.191,9.858
			c-5.688,2.334-12.503,3.524-20.271,3.524c-9.32,0-17.135-1.616-23.239-4.811c-4.36-2.318-7.952-5.457-10.68-9.354
			c-2.76-3.911-4.152-7.799-4.152-11.561c0-2.334,0.912-4.369,2.705-6.033c1.776-1.656,4.056-2.484,6.775-2.484
			c2.224,0,4.152,0.655,5.711,1.956c1.496,1.254,2.775,3.106,3.808,5.48c1.152,2.603,2.4,4.795,3.721,6.507
			c1.28,1.672,3.112,3.067,5.448,4.163c2.352,1.089,5.527,1.656,9.423,1.656c5.368,0,9.768-1.135,13.071-3.359
			c3.24-2.168,4.809-4.786,4.809-7.987c0-2.517-0.824-4.503-2.505-6.064c-1.776-1.624-4.104-2.886-6.927-3.77
			c-2.953-0.899-6.953-1.885-11.904-2.91c-6.744-1.419-12.463-3.1-17.007-5.016c-4.656-1.947-8.408-4.652-11.152-8.036
			c-2.784-3.445-4.2-7.76-4.2-12.831c0-4.825,1.479-9.187,4.408-12.941c2.896-3.729,7.136-6.647,12.599-8.627
			c5.384-1.963,11.784-2.957,19.04-2.957c5.792,0,10.888,0.662,15.143,1.972c4.279,1.31,7.88,3.075,10.711,5.26
			c2.857,2.208,4.984,4.551,6.312,6.995c1.344,2.469,2.032,4.921,2.032,7.295c0,2.288-0.896,4.369-2.663,6.175
			c-1.777,1.83-4.025,2.752-6.664,2.752c-2.4,0-4.288-0.583-5.584-1.719c-1.216-1.064-2.48-2.721-3.88-5.086
			c-1.616-3.028-3.575-5.418-5.823-7.106c-2.186-1.64-5.824-2.46-10.841-2.46c-4.64,0-8.432,0.915-11.24,2.735
			c-2.705,1.743-4.023,3.754-4.023,6.136c0,1.451,0.424,2.674,1.304,3.714c0.912,1.119,2.216,2.083,3.864,2.902
			c1.704,0.844,3.464,1.521,5.224,1.995c1.799,0.496,4.824,1.229,8.976,2.177c5.255,1.104,10.08,2.357,14.344,3.707
			c4.326,1.355,8.056,3.028,11.111,4.991c3.104,1.995,5.559,4.551,7.312,7.609c1.752,3.084,2.641,6.869,2.641,11.277
			C166.111,90.312,164.575,95.116,161.566,99.318z M191.678,82.473c0.984-4.432,1.495-9.021,1.495-13.737
			c0-35.33-29.046-63.98-64.894-63.98c-3.776,0-7.48,0.323-11.095,0.938C111.385,2.09,104.52,0,97.168,0
			C76.377,0,59.53,16.608,59.53,37.112c0,6.846,1.888,13.249,5.168,18.77c-0.856,4.147-1.312,8.453-1.312,12.854
			c0,35.346,29.056,63.988,64.895,63.988c4.063,0,8.031-0.371,11.887-1.072c5.304,2.807,11.352,4.408,17.791,4.408
			c20.785,0,37.632-16.616,37.632-37.104C195.59,93.033,194.181,87.442,191.678,82.473z"/>
	</g>
</g>
</svg>
