<?xml version="1.0" encoding="utf-8"?>
<!-- Generator: Adobe Illustrator 16.0.0, SVG Export Plug-In . SVG Version: 6.00 Build 0)  -->
<!DOCTYPE svg PUBLIC "-//W3C//DTD SVG 1.1//EN" "http://www.w3.org/Graphics/SVG/1.1/DTD/svg11.dtd">
<svg version="1.1" id="Social_Icons" xmlns="http://www.w3.org/2000/svg" xmlns:xlink="http://www.w3.org/1999/xlink" x="0px"
	 y="0px" width="255.121px" height="136.061px" viewBox="0 0 255.121 136.061" enable-background="new 0 0 255.121 136.061"
	 xml:space="preserve">
<g id="_x37__stroke">
	<g id="Twitter">
		<rect x="59.53" y="0" fill="#FFFFFF" width="136.061" height="136.061"/>
		<path id="Twitter_1_" fill="#FFFFFF" d="M195.59,24.76c-4.999,2.277-10.382,3.816-16.028,4.504
			c5.766-3.537,10.19-9.147,12.275-15.829c-5.399,3.275-11.365,5.659-17.738,6.937c-5.079-5.561-12.339-9.033-20.373-9.033
			c-15.406,0-27.904,12.816-27.904,28.623c0,2.243,0.239,4.422,0.718,6.519c-23.198-1.196-43.762-12.58-57.54-29.917
			c-2.403,4.242-3.778,9.164-3.778,14.405c0,9.926,4.928,18.688,12.419,23.823c-4.568-0.14-8.881-1.441-12.65-3.57v0.352
			c0,13.873,9.623,25.444,22.401,28.065c-2.339,0.672-4.808,1.008-7.356,1.008c-1.796,0-3.553-0.172-5.255-0.508
			c3.553,11.367,13.855,19.646,26.074,19.868c-9.552,7.682-21.594,12.259-34.667,12.259c-2.252,0-4.48-0.131-6.661-0.394
			c12.355,8.107,27.034,12.85,42.79,12.85c51.351,0,79.422-43.609,79.422-81.437c0-1.244-0.024-2.489-0.072-3.71
			C187.125,35.538,191.861,30.502,195.59,24.76"/>
	</g>
</g>
</svg>
