<?xml version="1.0" encoding="utf-8"?>
<!-- Generator: Adobe Illustrator 21.0.2, SVG Export Plug-In . SVG Version: 6.00 Build 0)  -->
<svg version="1.1" id="Calque_1" xmlns="http://www.w3.org/2000/svg" xmlns:xlink="http://www.w3.org/1999/xlink" x="0px" y="0px"
	 viewBox="0 0 107 103" style="enable-background:new 0 0 107 103;" xml:space="preserve">
<style type="text/css">
	.st0{opacity:0.98;}
	.st1{fill:#D6B100;}
</style>
<g class="st0">
	<path class="st1" d="M60.8,58.6c-0.9-0.5-1.8-1.1-2.7-1.6c-2.6,4.7-6.9,8-12.8,9.4h1.8c0.7,10.6,4.8,19.9,16,19.9
		c5.7,0,11.4-3.4,11.4-11.7C74.5,67.5,68.9,63.4,60.8,58.6z"/>
	<path class="st1" d="M54.1,54.2c-5.2-3.8-8.9-8.2-8.9-15.3c0-4.6,1.6-8.2,4.1-10.6c-2.6-2.1-6.3-3.2-11.3-3.2c-3.7,0-4.5,1-4.5,5.2
		v30.4c0,4.2,0.8,5.2,4.6,5.2C47.9,66,52.4,61.8,54.1,54.2z"/>
	<path class="st1" d="M52.4,32c-0.4,1.1-0.6,2.3-0.6,3.5c0,3.2,1.2,5.7,3,7.8C54.6,38.7,53.9,34.9,52.4,32z"/>
	<path class="st1" d="M53.7,6.4C28.1,6.4,7.4,27.1,7.4,52.7S28.1,99,53.7,99c25.6,0,46.3-20.7,46.3-46.3S79.3,6.4,53.7,6.4z
		 M63.7,88c-6.2,0-9.5-1.7-12-3.2c-1.4-0.9-2.3-1.2-3-1.2c-1.1,0-1.6,1.3-1.9,3.9h-2c0.3-3.6,0.3-8.6,0.3-21c-1.9,0.4-4,0.7-6.2,0.7
		c-1.8,0-5.9-0.2-8.5-0.2c-2.8,0-5.8,0.1-7.5,0.2v-1.2c4.1-0.2,4.9-0.8,4.9-5.2V30.4c0-4.4-0.8-5-4.9-5.2V24
		c1.4,0.1,3.7,0.2,5.9,0.2c0.5,0,1,0,1.5,0c2.8-0.1,6.9-0.2,9.2-0.2c4.9,0,8.9,0.9,12,2.5c2.9-1.8,6.4-2.8,10.2-2.8
		c5.8,0,8.3,1.7,10.7,3.3c1.4,0.9,2.2,1.2,3,1.2c1.1,0,1.6-1.3,1.9-3.9h2c-0.3,3.1-0.4,6.8-0.4,17.9h-2c-0.6-8.3-4.7-16.9-14.4-16.9
		c-3.3,0-6,1.1-7.9,3.1c4.3,3.6,6.4,9.1,6.4,16.6c0,1-0.1,2.1-0.2,3c1.8,1.1,3.7,2.3,5.7,3.5c9.1,5.7,15.8,10.3,15.8,19.7
		C82.3,82.5,73.9,88,63.7,88z"/>
</g>
</svg>
