<?xml version="1.0" encoding="utf-8"?>
<!-- Generator: Adobe Illustrator 21.0.2, SVG Export Plug-In . SVG Version: 6.00 Build 0)  -->
<svg version="1.1" id="Layer_1" xmlns="http://www.w3.org/2000/svg" xmlns:xlink="http://www.w3.org/1999/xlink" x="0px" y="0px"
	 viewBox="0 0 90.7 98.3" style="enable-background:new 0 0 90.7 98.3;" xml:space="preserve">
<style type="text/css">
	.st0{fill-rule:evenodd;clip-rule:evenodd;fill:#FFFFFF;}
</style>
<g id="_x36_T3QnV_1_">
	<g>
		<path class="st0" d="M79.9,21.6c-3.9,5.6-7.5,10.8-11.1,16c0.1,0.1,0.1,0.2,0.2,0.3c4.7-1.8,9.5-3.5,14.4-5.4c0,13,0,25.7,0,38.7
			c-4.6-1.7-9.1-3.4-13.5-5.1c-0.1,0.1-0.2,0.2-0.3,0.3c3.2,4.7,6.5,9.4,9.9,14.4c-0.8,0.1-1.3,0.1-1.9,0.1c-5.6,0-11.2,0-16.8,0
			c-1.2,0-1.9-0.3-2.6-1.3c-1.6-2.5-3.4-4.9-5.4-7.8c0,2.3,0,4.1,0,5.9c-0.2,0-0.3,0.1-0.5,0.1c-1.1-2.2-2-4.6-3.3-6.7
			c-2.4-4-3.3-8.3-3.1-13c0.3-6,0-12,0.1-18c0-1,0.3-2.1,0.7-2.9c1.8-3.5,3.7-7,5.8-10.5c0,1.3,0,2.5,0,3.8c0.1,0,0.3,0.1,0.4,0.1
			c1.8-2.6,3.7-5.3,5.6-7.9c0.4-0.6,1.1-1.2,1.7-1.2C66.7,21.6,73.1,21.6,79.9,21.6z M57.5,39.3c0,8.1,0,16,0,24c3.2,0,6.4,0,9.5,0
			c0-8.1,0-16,0-24C63.8,39.3,60.7,39.3,57.5,39.3z"/>
		<path class="st0" d="M9.1,65.3c-3.7-0.3-4.2-0.8-4.2-4.4c0-5.1,0-10.3,0-15.4c0-4.1,0.1-4.2,4.1-4.8c1.1-3.6,1.8-4.1,5.7-4.1
			c8.7,0,17.5,0,26.2,0c0.6,0,1.2,0,1.6,0c-0.1,2-0.4,3.9-0.4,5.7c0,6.1,0,12.1,0,18.2c0,3.1,0,6.1,2.1,9c-1,0.1-1.6,0.1-2.2,0.1
			c-9.2,0-18.5,0-27.7,0C10.8,69.6,9.8,68.8,9.1,65.3z M20.8,42c-2.3,0-4.7-0.1-7,0c-0.5,0-1,0.6-1.4,0.9c0.5,0.3,0.9,1,1.4,1
			c4.7,0.1,9.3,0.1,14,0c0.5,0,1-0.6,1.4-0.9c-0.5-0.3-1.1-0.9-1.6-0.9C25.4,42,23.1,42,20.8,42z M20.8,49.5c2.3,0,4.7,0.1,7,0
			c0.5,0,1-0.6,1.4-0.9c-0.5-0.3-1-0.9-1.4-0.9c-4.7-0.1-9.3-0.1-14,0c-0.5,0-0.9,0.6-1.4,1c0.5,0.3,0.9,0.9,1.4,0.9
			C16.1,49.6,18.5,49.5,20.8,49.5z"/>
		<path class="st0" d="M33.2,71.5c-1.5,0-2.8,0-4.3,0c-0.1,0.3-0.1,0.5-0.1,0.6c0,10.4,0,0,0,10.3c0,1.5,0.7,2.5,2.3,2.6
			c1.7,0,2.1-1.1,2.1-2.6L33.2,71.5z"/>
	</g>
</g>
</svg>
