<?xml version="1.0" encoding="utf-8"?>
<!-- Generator: Adobe Illustrator 21.0.2, SVG Export Plug-In . SVG Version: 6.00 Build 0)  -->
<svg version="1.1" id="Layer_1" xmlns="http://www.w3.org/2000/svg" xmlns:xlink="http://www.w3.org/1999/xlink" x="0px" y="0px"
	 viewBox="0 0 90.7 98.3" style="enable-background:new 0 0 90.7 98.3;" xml:space="preserve">
<style type="text/css">
	.st0{fill:none;stroke:#FFFFFF;stroke-miterlimit:10;}
	.st1{fill:#FFFFFF;}
	.st2{fill:none;stroke:#FFFFFF;stroke-width:1.612;stroke-miterlimit:10;}
	.st3{fill:none;stroke:#FFFFFF;stroke-width:2;stroke-miterlimit:10;}
	.st4{fill:none;stroke:#FFFFFF;stroke-width:2.0241;stroke-miterlimit:10;}
	.st5{fill:none;stroke:#FFFFFF;stroke-width:1.2557;stroke-miterlimit:10;}
	.st6{fill:none;stroke:#FFFFFF;stroke-width:2.5113;stroke-miterlimit:10;}
	.st7{fill:none;stroke:#FFFFFF;stroke-width:2.3647;stroke-miterlimit:10;}
</style>
<path class="st0" d="M80.5,41.3c-0.1-1.1-1.7,0-1.7,0c0-8.7-6.7-9.1-6.7-9.1s-6.7,0.4-6.7,9.1c0,0-1.6-1.1-1.7,0
	c-0.1,1.1,0.7,4.1,1.7,4.3c1.1,0.1,1.1,0.1,1.1,0.1s0,1.6,0.8,2.3c0.8,0.7,2.4,3.2,4.8,3.2c2.4,0,4-2.5,4.8-3.2
	c0.8-0.7,0.8-2.3,0.8-2.3s0,0,1.1-0.1C79.9,45.4,80.7,42.4,80.5,41.3z"/>
<path class="st1" d="M75.5,37.4c0,0-0.7,3.3-4.3,3.6s-5.6,0.5-5.6,0.5l-1.3-0.7c0,0-0.5-10.2,7.5-10.2s8.5,9.9,8.5,9.9l-1.4,0.8
	C78.8,41.3,75,40.4,75.5,37.4z"/>
<path class="st1" d="M76.1,52.4l-2.9,1.9l-0.1,0.2c-0.2-0.3-0.6-0.4-0.9-0.4c-0.4,0-0.8,0.2-1,0.6l-0.1-0.4l-2.9-1.9v5l3.1-1.4
	c0.2,0.3,0.6,0.5,0.9,0.5c0.4,0,0.7-0.2,0.9-0.4l3,1.3V52.4z"/>
<circle class="st1" cx="72.1" cy="60.8" r="1.1"/>
<path class="st0" d="M27.6,40.6c-0.1-1.1-1.7,0-1.7,0c0-8.7-6.7-9.1-6.7-9.1s-6.7,0.4-6.7,9.1c0,0-1.6-1.1-1.7,0
	c-0.1,1.1,0.7,4.1,1.7,4.3c1.1,0.1,1.1,0.1,1.1,0.1s0,1.6,0.8,2.3c0.8,0.7,2.4,3.2,4.8,3.2s4-2.5,4.8-3.2c0.8-0.7,0.8-2.3,0.8-2.3
	s0,0,1.1-0.1S27.7,41.7,27.6,40.6z"/>
<path class="st1" d="M22.5,36.7c0,0-0.7,3.3-4.3,3.6s-5.6,0.5-5.6,0.5l-1.3-0.7c0,0-0.5-10.2,7.5-10.2s8.5,9.9,8.5,9.9l-1.4,0.8
	C25.8,40.6,22.1,39.7,22.5,36.7z"/>
<path class="st2" d="M54.1,39.2v-5.3c2-0.6,3.5-2.5,3.5-4.7c0-2.7-2.2-5-5-5c-0.7,0-1.4,0.1-2,0.4c-0.9-1-2.2-1.6-3.6-1.6
	c-1.4,0-2.7,0.6-3.6,1.6c-0.6-0.3-1.3-0.4-2-0.4c-2.7,0-5,2.2-5,5c0,2.2,1.5,4.1,3.5,4.7v5.3"/>
<path class="st3" d="M34.1,63.2c-1.3,1.8-2.3,3.6-2.8,4.5c-1.1,2-0.6,5.3-0.6,7.4c0,2.1,2.9,2.8,2.9,2.8h13.4h0.1h13.4
	c0,0,2.9-0.7,2.9-2.8c0-2.1,0.5-5.4-0.6-7.4c-0.5-0.9-1.6-2.8-2.9-4.6"/>
<path class="st3" d="M40.2,68c-0.3,4.6-0.2,9.8-0.2,9.8"/>
<g>
	<path class="st4" d="M38.3,39.2v0.5c0,1.7,1.2,3.1,2.8,3.1h12.1c1.5,0,2.8-1.4,2.8-3.1v-0.6"/>
	<path class="st5" d="M57.6,47.6c-0.2-1.3-2.2,0-2.2,0c0-10.9-8.3-4.8-8.3-4.8s-8.5-6.1-8.5,4.8c0,0-2-1.3-2.2,0
		c-0.2,1.3,0.8,5.2,2.2,5.4c1.3,0.2,1.3,0.2,1.3,0.2s0,2,1,2.8c1,0.8,3,4,6,4c3,0,5-3.2,6-4c1-0.8,1-2.8,1-2.8s0,0,1.3-0.2
		C56.8,52.8,57.8,48.9,57.6,47.6z"/>
	<path class="st6" d="M60.3,62.7c-1.1-1-2.2-1.6-3.1-1.6l-10,0.9l-10-0.9c-1.1,0-2.4,0.8-3.6,2"/>
	<path class="st1" d="M38.2,40.2C37,43.5,37.1,47,37.1,47l1.7,0.8c0,0,2.5-0.4,7-0.7c4.6-0.3,5.4-4.5,5.4-4.5
		c-0.5,3.7,4.2,4.9,4.2,4.9l1.8-1c0,0-0.2-3.2-1.6-6.3H38.2z"/>
	<path class="st6" d="M46.3,61.9c0,0-4.2-0.5-6.4,2.7c-0.5,0.8-0.9,2.3-1.2,4.2"/>
	<circle class="st1" cx="44" cy="67.8" r="1.3"/>
</g>
<g>
	<path class="st7" d="M38.9,68.1c-1.2-0.7-2.4-1.6-3.4-2.6C29,59,29,48.5,35.5,42c6.5-6.5,17-6.5,23.4,0c5.8,5.8,6.4,14.7,1.9,21.2"
		/>
	<path class="st7" d="M60.8,63.2c-0.6,0.8-1.2,1.5-1.9,2.3c-5.4,5.4-13.7,6.3-20,2.6"/>
	<path class="st1" d="M75.1,77.6c0.7,0.7,0.7,1.8,0,2.5l-1.6,1.6c-0.7,0.7-1.8,0.7-2.5,0L57.6,68.3c-0.7-0.7-0.7-1.8,0-2.5l1.6-1.6
		c0.7-0.7,1.8-0.7,2.5,0L75.1,77.6z"/>
</g>
<path class="st1" d="M28.6,51.9c-0.5-0.3-1-0.5-1.4-0.5l-8,2.8l-8-2.8c-2.9,0-6.7,6.7-7.8,8.7s-0.6,5.3-0.6,7.4s2.9,2.8,2.9,2.8
	h13.4h0.1h9c0-1.3,0.2-2.6,0.7-3.6c0.4-0.7,1.2-2.1,2.1-3.5C29.1,59.8,28.2,55.8,28.6,51.9z M19.2,69.9l-3.7-2.8l2.8-12.9l0.9,0.8
	l1.2-0.8l2.6,13L19.2,69.9z"/>
<path class="st1" d="M88,60.8c-1.1-2-5-8.7-7.8-8.7l-8,14.5l-6.3-11.6C65.7,57.4,65,59.8,64,62c1.1,1.6,2.1,3.3,2.5,4.1
	c0.7,1.3,0.8,3.2,0.7,4.9h4.9h0.1h13.4c0,0,2.9-0.7,2.9-2.8C88.6,66.1,89.1,62.8,88,60.8z"/>
</svg>
