<?xml version="1.0" encoding="utf-8"?>
<!-- Generator: Adobe Illustrator 21.0.2, SVG Export Plug-In . SVG Version: 6.00 Build 0)  -->
<svg version="1.1" id="Layer_1" xmlns="http://www.w3.org/2000/svg" xmlns:xlink="http://www.w3.org/1999/xlink" x="0px" y="0px"
	 viewBox="0 0 90.7 98.3" style="enable-background:new 0 0 90.7 98.3;" xml:space="preserve">
<style type="text/css">
	.st0{fill:none;stroke:#FFFFFF;stroke-width:2;stroke-miterlimit:10;}
	.st1{fill:#FFFFFF;}
</style>
<path class="st0" d="M53.3,23.7c-1.5-0.3-1.7-1.1-2.5-3c-0.8-1.9-0.4-4.2-5.5-4.2s-4.8,2.4-5.5,4.2s-0.9,2.7-2.5,3
	c-1.5,0.3-3.1,0.9-3.1,0.9v4.4h11h11v-4.4C56.4,24.6,54.9,24,53.3,23.7z"/>
<circle class="st1" cx="45.3" cy="20.6" r="1.7"/>
<path class="st1" d="M65.9,23.7H53.3c1.5,0.3,3.1,0.9,3.1,0.9v4.4h-11h-11v-4.4c0,0,1.5-0.7,3.1-0.9H24.8c-2.1,0-3.9,1.7-3.9,3.9V78
	c0,2.1,1.7,3.9,3.9,3.9h41.1c2.1,0,3.9-1.7,3.9-3.9V27.6C69.7,25.4,68,23.7,65.9,23.7z M63.8,76.4H26.9V29.2h36.9V76.4z"/>
<polygon class="st1" points="29.4,41.4 32.2,44 39.2,39.3 36.7,36.9 32.3,42.3 30.4,40.6 "/>
<polygon class="st1" points="29.4,51.6 32.2,54.2 39.2,49.4 36.7,47.1 32.3,52.5 30.4,50.8 "/>
<polygon class="st1" points="29.4,64.5 32.2,67.2 39.2,62.4 36.7,60.1 32.3,65.4 30.4,63.7 "/>
<rect x="43.1" y="40.5" class="st1" width="14.4" height="1.3"/>
<rect x="43.1" y="50" class="st1" width="14.4" height="1.3"/>
<rect x="43.1" y="62.9" class="st1" width="14.4" height="1.3"/>
</svg>
