<?xml version="1.0" encoding="utf-8"?>
<!-- Generator: Adobe Illustrator 21.0.2, SVG Export Plug-In . SVG Version: 6.00 Build 0)  -->
<svg version="1.1" id="Layer_1" xmlns="http://www.w3.org/2000/svg" xmlns:xlink="http://www.w3.org/1999/xlink" x="0px" y="0px"
	 viewBox="0 0 90.7 98.3" style="enable-background:new 0 0 90.7 98.3;" xml:space="preserve">
<style type="text/css">
	.st0{fill:#FFFFFF;}
	.st1{fill:none;stroke:#FFFFFF;stroke-width:4;stroke-miterlimit:10;}
</style>
<g>
	<g>
		<path class="st0" d="M63.4,27.7c0.3,0,0.6,0.3,0.7,0.8L60.8,84l0,0.1v0.1c0,0.5-0.3,0.8-0.7,0.8H26.5c-0.4,0-0.7-0.4-0.7-0.8v-0.1
			l0-0.1l-3.3-55.6c0-0.4,0.3-0.8,0.7-0.8H63.4 M63.4,23.7H23.2c-2.6,0-4.7,2.2-4.7,4.8l3.3,55.8c0,2.7,2.1,4.8,4.7,4.8h33.5
			c2.6,0,4.7-2.2,4.7-4.8l3.3-55.8C68.1,25.8,66,23.7,63.4,23.7L63.4,23.7z"/>
	</g>
	<polygon class="st0" points="23.3,49.9 63.3,49.9 61.9,85.8 25.1,85.8 	"/>
	<path class="st1" d="M72.1,9.2l-16.7,4.3c0,0-5.2,1.7-5.2,7.2s0,34.2,0,34.2"/>
</g>
</svg>
