<?xml version="1.0" encoding="utf-8"?>
<!-- Generator: Adobe Illustrator 21.0.2, SVG Export Plug-In . SVG Version: 6.00 Build 0)  -->
<svg version="1.1" id="Layer_1" xmlns="http://www.w3.org/2000/svg" xmlns:xlink="http://www.w3.org/1999/xlink" x="0px" y="0px"
	 viewBox="0 0 90.7 98.3" style="enable-background:new 0 0 90.7 98.3;" xml:space="preserve">
<style type="text/css">
	.st0{fill:#FFFFFF;}
</style>
<path class="st0" d="M41.3,34.1c0,0,9.1,0,9.2-4.9S40,23.9,37.3,23.9c-2.7,0-14.7,2.4-14.6,8c0.1,5.6,9.5,9.8,21,9.8
	S68,36.5,68,28.3S53.7,12.6,36.1,12.6c0,3.7,0,8.2,0,8.2s17.6,0.2,17.6,8.3s-12.6,8.1-12.6,8.1L41.3,34.1z"/>
<path class="st0" d="M68,36.3v7.8c0,0-16.5,9-20.7,16.6s-8,24.4-8,24.4s-16.6-5.9-16.6-18.7s0-28.8,0-28.8S29.4,45,45.3,45
	S68,36.3,68,36.3z"/>
<path class="st0" d="M84.7,43.4c0,0,0.5,17.1-12.9,29.8S42.4,85.7,42.4,85.7S42,69.9,54.2,57.8S84.7,43.4,84.7,43.4z"/>
<path class="st0" d="M22.1,26.2c0,0-2.4,2.4-2.4,3.7s0,26.9,0,35.7S27.7,83,30.2,84.2C21.4,80.8,6,71.5,6,53.4S22.1,26.2,22.1,26.2z
	"/>
</svg>
