<?xml version="1.0" encoding="utf-8"?>
<!-- Generator: Adobe Illustrator 21.0.2, SVG Export Plug-In . SVG Version: 6.00 Build 0)  -->
<svg version="1.1" id="Layer_1" xmlns="http://www.w3.org/2000/svg" xmlns:xlink="http://www.w3.org/1999/xlink" x="0px" y="0px"
	 viewBox="0 0 90.7 98.3" style="enable-background:new 0 0 90.7 98.3;" xml:space="preserve">
<style type="text/css">
	.st0{fill:#FFFFFF;}
</style>
<g>
	<path class="st0" d="M46.4,20.3c-15.9,0-28.8,12.9-28.8,28.8C17.6,65.1,30.5,78,46.4,78c15.9,0,28.8-12.9,28.8-28.8
		C75.3,33.2,62.4,20.3,46.4,20.3z M46.1,67.7c-10,0-18.1-8.1-18.1-18.1c0-10,8.1-18.1,18.1-18.1c10,0,18.1,8.1,18.1,18.1
		C64.2,59.5,56.1,67.7,46.1,67.7z"/>
	<path class="st0" d="M14.5,25.4h-1.2l0.4,12.7h-1.5V25.4h-1.1v12.8H9.9V25.4l-1.2,0v12.8H7.3l0.4-12.8H6.6L5.3,36.2
		c0,0,0,0.4,0,0.6c0,1.7,0.8,3.2,2,4.1c4,4.5,1.3,9.1,1.3,10.2c0,1.2,0,19.7,0,19.7c0,0,0,0,0,0c0,1.1,0.9,2.1,2.1,2.1
		c1.1,0,2.1-0.9,2.1-2.1c0,0,0,0,0,0l0,0c0,0,0-18.3,0-19.7c0-1.3-2.3-6.5,1.5-10.4c0,0,0,0,0,0c0.9-0.9,1.6-2.1,1.6-3.5
		c0-0.1,0-0.3,0-0.3L14.5,25.4z"/>
	<path class="st0" d="M85.4,56c0-1.2,0-30.6,0-30.6l-0.7,0c0,0-5.5,3.1-5.5,26c4.2,1.2,2.4,5.7,2.1,6.3c0,1.2,0.1,13.1,0.1,13.1l0,0
		c0,0,0,0,0,0c0,1.1,0.9,2,2,2c1.1,0,2-0.9,2-2c0,0,0,0,0,0l0,0C85.4,70.9,85.4,57.4,85.4,56z"/>
</g>
</svg>
