<?xml version="1.0" encoding="utf-8"?>
<!-- Generator: Adobe Illustrator 21.0.2, SVG Export Plug-In . SVG Version: 6.00 Build 0)  -->
<svg version="1.1" id="Layer_1" xmlns="http://www.w3.org/2000/svg" xmlns:xlink="http://www.w3.org/1999/xlink" x="0px" y="0px"
	 viewBox="0 0 90.7 98.3" style="enable-background:new 0 0 90.7 98.3;" xml:space="preserve">
<style type="text/css">
	.st0{fill:#FFFFFF;}
</style>
<g>
	<path class="st0" d="M33.4,51.7c0-0.8,0.1-1.6,0.2-2.4c0.2-1.9,0.6-3.8,1-5.7c0.3-0.9,0.5-1.8,0.8-2.7c0.4-0.9,0.7-1.7,1.1-2.6
		c0.8-1.7,1.7-3.2,2.9-4.5c0.3-0.3,0.5-0.7,0.8-1c0.3-0.3,0.6-0.6,0.9-0.9c0.6-0.5,1.1-1.1,1.7-1.5c1.2-0.9,2.2-1.7,3.3-2.2
		c1-0.6,1.9-1.1,2.7-1.3c1.5-0.6,2.4-0.9,2.4-0.9s-0.7,0.6-2.1,1.6c-0.7,0.4-1.4,1.1-2.2,1.8c-0.9,0.7-1.7,1.7-2.6,2.6
		c-0.5,0.5-0.8,1.1-1.3,1.6c-0.2,0.3-0.4,0.6-0.7,0.9c-0.2,0.3-0.4,0.6-0.6,1c-0.8,1.3-1.5,2.7-2.1,4.2c-0.3,0.8-0.5,1.6-0.8,2.4
		c-0.2,0.8-0.4,1.7-0.6,2.5c-0.3,1.7-0.7,3.5-0.8,5.3c-0.1,0.7-0.2,1.3-0.2,2c14.3,0,25.4,0,40.9,0C78,51,78,50.4,78,49.7
		c0-13.1-9.5-23.8-21.8-25.3c0.8-0.7,1.3-1.8,1.3-3c0-2.2-1.8-4.1-4.1-4.1c-2.2,0-4.1,1.8-4.1,4.1c0,1.2,0.5,2.2,1.3,3
		c-12.3,1.4-21.8,12.2-21.8,25.3c0,0.7,0,1.4,0.1,2C30.5,51.7,32,51.7,33.4,51.7z"/>
	<rect x="24.5" y="53.2" class="st0" width="58" height="5.1"/>
	<path class="st0" d="M58.7,62c-3,1.4-13.2,5.1-13.2,5.1l-12.2-0.8c0,0,7-1.9,9.6-2.5c2.7-0.6,1.5-3.6,0-3.6
		c-1.5,0-14.5,0.5-14.5,0.5l-8.6,3.1l2.3,14.5c0,0,1.8-3,3.6-3c1.8,0,17.2,0.4,19.3,0c2.1-0.4,14.9-9.1,16.4-10.2
		C62.8,64.1,61.6,60.5,58.7,62z"/>
	<polygon class="st0" points="8.2,65.4 8.2,84.1 21.4,81.6 18.1,63.6 	"/>
</g>
</svg>
