<?xml version="1.0" encoding="utf-8"?>
<!-- Generator: Adobe Illustrator 21.0.2, SVG Export Plug-In . SVG Version: 6.00 Build 0)  -->
<svg version="1.1" id="Layer_1" xmlns="http://www.w3.org/2000/svg" xmlns:xlink="http://www.w3.org/1999/xlink" x="0px" y="0px"
	 viewBox="0 0 90.7 98.3" style="enable-background:new 0 0 90.7 98.3;" xml:space="preserve">
<style type="text/css">
	.st0{fill:#FFFFFF;}
</style>
<path class="st0" d="M30.2,47.3H10.4V25.9H3.8v46.5h3.7l2.9-18.2V54h13.7l-0.9,0.3L26,72.4h3.5V54h0.8c1.9,0,3.5-1.5,3.5-3.3
	C33.7,48.8,32.1,47.3,30.2,47.3z"/>
<path class="st0" d="M58.3,47.3h19.8V25.9h6.7v46.5H81l-2.9-18.2V54H64.4l0.9,0.3l-2.7,18.2h-3.5V54h-0.8c-1.9,0-3.5-1.5-3.5-3.3
	C54.8,48.8,56.4,47.3,58.3,47.3z"/>
<path class="st0" d="M62.2,32.1H25.6c-2,0-3.6,1.6-3.6,3.6s1.6,3.6,3.6,3.6h15.4v28.8l-7.2,1.1v3.2H54v-3.7l-7.2-0.8V39.3h15.4
	c2,0,3.6-1.6,3.6-3.6S64.2,32.1,62.2,32.1z"/>
</svg>
