<?xml version="1.0" encoding="utf-8"?>
<!-- Generator: Adobe Illustrator 21.0.2, SVG Export Plug-In . SVG Version: 6.00 Build 0)  -->
<svg version="1.1" id="Layer_1" xmlns="http://www.w3.org/2000/svg" xmlns:xlink="http://www.w3.org/1999/xlink" x="0px" y="0px"
	 viewBox="0 0 90.7 98.3" style="enable-background:new 0 0 90.7 98.3;" xml:space="preserve">
<style type="text/css">
	.st0{fill:#FFFFFF;}
</style>
<path class="st0" d="M75.2,30.7c-2.8-4.7-8.4-7.5-15.3-7.5c-4.9,0-9.3,2.2-12.9,4.9c-3.2-3.6-9.4-6.8-16-6.6
	c-4.3,0.1-10.3,1.7-15,8.6c-2.4,3.6-3.1,7.3-2.2,11.2c1.8,7.3,9.2,12.7,12.3,14.8v18.1c0,1.5,1.2,2.7,2.7,2.7h35.3
	c1.5,0,2.7-1.2,2.7-2.7V54.7c3.2-1.6,5.9-3.8,7.6-6.9C77.8,41.5,78.1,35.5,75.2,30.7z M69.8,45.3c-4.4,8.3-23.3,8.7-30.2,8.1
	c-1.5-0.1-2.8,1-2.9,2.4c-0.1,1.5,1,2.8,2.4,2.9c0.3,0,2.3,0.2,5.3,0.2c4.5,0,11.2-0.4,17.2-2.1v14.7h-30V54.6c0-1-0.5-1.9-1.4-2.3
	c-0.1-0.1-9.5-5.3-11.1-12.2c-0.6-2.4-0.1-4.7,1.4-7c2.7-4,6.3-6.1,10.6-6.2c4.8-0.1,9.6,2.3,11.9,4.8c-3.6,3.7-5.8,7.3-6,7.6
	c-0.8,1.3-0.4,2.9,0.9,3.7c1.3,0.8,2.9,0.4,3.7-0.9c0.1-0.1,8.3-13.4,18.4-13.4c4.9,0,8.8,1.8,10.7,4.9
	C72.5,36.5,72.2,40.7,69.8,45.3z"/>
</svg>
