<?xml version="1.0" encoding="utf-8"?>
<!-- Generator: Adobe Illustrator 21.0.2, SVG Export Plug-In . SVG Version: 6.00 Build 0)  -->
<svg version="1.1" id="Layer_1" xmlns="http://www.w3.org/2000/svg" xmlns:xlink="http://www.w3.org/1999/xlink" x="0px" y="0px"
	 viewBox="0 0 90.7 98.3" style="enable-background:new 0 0 90.7 98.3;" xml:space="preserve">
<style type="text/css">
	.st0{fill:#FFFFFF;}
</style>
<g>
	<path class="st0" d="M70.8,30.3c0-3.2,0-17.5,0-17.5h-2.4h-1.4h-2.4c0,0,0,14.4,0,17.5s-6,7-6,11.6c0,4.5,0,37.3,0,38.4
		c0,1.2,0.8,3.1,2.5,3.1c1.2,0,4.1,0,5.8,0c0.8,0,1.4,0,1.4,0c1.7,0,4.7,0,5.8,0c1.7,0,2.5-1.9,2.5-3.1c0-1.2,0-33.9,0-38.4
		C76.8,37.3,70.8,33.5,70.8,30.3z M66,35.4c-0.4,0.5-0.8,1.2-1.3,2c-0.5,0.8-0.9,1.7-1.4,2.6c-0.2,0.5-0.4,1-0.5,1.5
		c0,0.6-0.2,1-0.1,1.7c0,1.3,0.1,2.6,0.1,4c0.1,2.8,0.1,5.8,0.1,8.8c0,6-0.2,12-0.5,16.5c-0.1,2.2-0.3,4.1-0.4,5.4
		C62,79.3,61.9,80,61.9,80s-0.1-0.7-0.2-2.1c-0.1-1.3-0.3-3.2-0.4-5.4c-0.3-4.5-0.5-10.5-0.5-16.5c0-3,0-6,0.1-8.8
		c0-1.4,0.1-2.8,0.1-4c0-0.6,0.2-1.4,0.3-2.1c0.3-0.6,0.5-1.2,0.8-1.7c0.3-0.5,0.6-1,0.9-1.4c0.3-0.4,0.6-0.8,0.9-1.2
		c0.6-0.7,1.2-1.3,1.6-1.8c0.9-0.9,1.5-1.4,1.5-1.4S66.8,34.4,66,35.4z"/>
	<path class="st0" d="M52.7,58.9c0-0.5-0.5-3.6-3.4-3.6c-0.9,0-1.7,0-1.7,0l-0.6-1.2h-0.4v-0.6h0.4v-1h-0.4v-0.8H47v-1.2h-0.4v-0.7
		H47l0-3.7c0,0,5.9-3.6,5.7-7.4c-0.3-3.7-6.1-2.4-6.1-2.4l-1.2-0.2c0,0,0,0,0,0l-0.1,0l-0.1,0c0,0,0,0,0,0L44,36.4
		c0,0-5.8-1.3-6.1,2.4c-0.3,3.8,5.7,7.4,5.7,7.4l0,3.7H44v0.7h-0.4v1.2H44v0.8h-0.4v1H44v0.6h-0.4L43,55.3c0,0-0.8,0-1.7,0
		c-2.8,0.1-3.4,3.1-3.4,3.6c-0.3,0.1-0.6,1,0,1.9c0.6,0.9,2.9,3.9,2.7,7.3c-0.2,3.4-2.6,4.8-2.7,9.3c-0.1,4.5,1.1,5.5,2.3,5.9
		c1.2,0.3,2-0.5,1.9-1.4c-0.1-0.9-0.3-2-0.3-2s2.9,0.6,3.4,0.1c0.5,0.4,3.4-0.1,3.4-0.1s-0.1,1.1-0.3,2c-0.1,0.9,0.7,1.8,1.9,1.4
		c1.2-0.3,2.5-1.4,2.3-5.9c-0.1-4.5-2.5-5.9-2.7-9.3c-0.2-3.4,2.1-6.4,2.7-7.3C53.3,60,53,59,52.7,58.9z M41.3,59.9
		c-0.6,0-1.1-0.5-1.1-1.1c0-0.6,0.5-1.1,1.1-1.1c0.6,0,1.1,0.5,1.1,1.1C42.4,59.4,41.9,59.9,41.3,59.9z M45,66.4h-0.4v0.8H45V68
		h-0.4v0.7H45v0.9h-0.4v0.8H45v0.9h-0.4v0.7H45V73h-0.4v0.2l-2.4,0c0,0,0-7.7,0-8.4c0-0.5,1.4-0.5,2.4-0.5v1.1H45V66.4z M45.3,43.6
		C45.3,43.6,45.3,43.6,45.3,43.6C45.2,43.6,45.2,43.6,45.3,43.6c-3.5,0.2-4.3-1.7-3.8-3.8c0.4-1.9,3.4-0.7,3.8-1.1
		c0.5,0.4,3.4-0.9,3.8,1.1C49.6,41.9,48.8,43.8,45.3,43.6C45.4,43.6,45.4,43.6,45.3,43.6C45.3,43.6,45.3,43.6,45.3,43.6z M46.4,73.2
		v-0.8h-0.5v-0.9h0.5v-0.7h-0.5v-0.9h0.5v-0.8h-0.5v-0.9h0.5v-0.7h-0.5v-0.9h0.5v-0.8h-0.5v-0.9h0.5v-0.6c0.9,0,2,0.1,2,0.5
		c0,0.7,0,8.4,0,8.4L46.4,73.2z M50.2,60.1c-0.6,0-1.1-0.5-1.1-1.1c0-0.6,0.5-1.1,1.1-1.1c0.6,0,1.1,0.5,1.1,1.1
		C51.2,59.6,50.8,60.1,50.2,60.1z"/>
	
		<rect x="15.7" y="74.6" transform="matrix(1 -7.259560e-03 7.259560e-03 1 -0.569 0.1751)" class="st0" width="16.3" height="7.7"/>
</g>
</svg>
