<?xml version="1.0" encoding="utf-8"?>
<!-- Generator: Adobe Illustrator 21.0.2, SVG Export Plug-In . SVG Version: 6.00 Build 0)  -->
<svg version="1.1" id="Calque_1" xmlns="http://www.w3.org/2000/svg" xmlns:xlink="http://www.w3.org/1999/xlink" x="0px" y="0px"
	 viewBox="0 0 505 125" style="enable-background:new 0 0 505 125;" xml:space="preserve">
<style type="text/css">
	.st0{fill:#FFFFFF;}
</style>
<g>
	<path class="st0" d="M252.7,65.1c-5.6-4.1-9.7-9-9.7-16.7c0-5.1,1.7-8.9,4.5-11.6c-2.9-2.3-6.9-3.5-12.4-3.5
		c-4.1,0-4.9,1.1-4.9,5.7v33.2c0,4.6,0.9,5.7,5,5.7C245.9,78,250.9,73.4,252.7,65.1z"/>
	<path class="st0" d="M260,69.9c-1-0.6-2-1.2-2.9-1.8c-2.8,5.2-7.6,8.8-14,10.3h1.9c0.8,11.6,5.2,21.7,17.4,21.7
		c6.2,0,12.4-3.7,12.4-12.8C274.9,79.6,268.9,75.2,260,69.9z"/>
	<path class="st0" d="M250.8,40.9c-0.4,1.2-0.6,2.5-0.6,3.9c0,3.5,1.3,6.2,3.3,8.5C253.3,48.1,252.5,44,250.8,40.9z"/>
	<path class="st0" d="M252.3,12.8c-28,0-50.6,22.7-50.6,50.6s22.7,50.6,50.6,50.6c28,0,50.6-22.7,50.6-50.6S280.2,12.8,252.3,12.8z
		 M263.2,102c-6.8,0-10.3-1.8-13.1-3.6c-1.5-1-2.5-1.4-3.3-1.4c-1.2,0-1.7,1.4-2.1,4.2h-2.2c0.3-3.9,0.4-9.4,0.4-22.9
		c-2.1,0.5-4.3,0.7-6.8,0.7c-2,0-6.5-0.2-9.3-0.2c-3.1,0-6.4,0.1-8.2,0.2v-1.3c4.5-0.2,5.4-0.9,5.4-5.7v-33c0-4.8-0.9-5.5-5.4-5.7
		v-1.3c1.5,0.1,4,0.2,6.5,0.2c0.6,0,1.1,0,1.6,0c3.1-0.1,7.5-0.2,10-0.2c5.3,0,9.7,0.9,13.2,2.7c3.1-2,7-3,11.1-3
		c6.3,0,9.1,1.8,11.7,3.6c1.5,1,2.4,1.4,3.3,1.4c1.2,0,1.7-1.4,2.1-4.2h2.2c-0.3,3.4-0.5,7.5-0.5,19.5h-2.2
		c-0.7-9.1-5.1-18.4-15.7-18.4c-3.6,0-6.6,1.2-8.7,3.4c4.7,3.9,7,10,7,18.1c0,1.1-0.1,2.2-0.2,3.3c1.9,1.2,4.1,2.5,6.3,3.9
		c10,6.2,17.3,11.3,17.3,21.6C283.5,96,274.3,102,263.2,102z"/>
</g>
<g>
	<path class="st0" d="M19.8,36.1l1.6,0c6.1-0.1,9.4-0.2,10-0.2c7.8,0,13.7,2,17.6,5.9c3.9,3.9,5.8,9.6,5.8,17.1
		c0,4.8-0.9,9-2.8,12.6c-1.9,3.6-4.6,6.4-8.2,8.4c-3.6,2-7.9,3-12.9,3c-0.6,0-2,0-4.3-0.1c-2.3-0.1-3.9-0.1-5-0.1
		c-3.6,0-6.4,0.1-8.2,0.2v-1.3c1.6-0.1,2.8-0.2,3.5-0.5c0.7-0.3,1.2-0.8,1.5-1.6c0.3-0.8,0.4-2,0.4-3.6V42.9c0-1.7-0.1-2.9-0.4-3.6
		c-0.3-0.8-0.8-1.3-1.5-1.6c-0.7-0.3-1.9-0.5-3.5-0.5v-1.3C15.7,36,17.8,36.1,19.8,36.1z M25.2,79.5c0.3,0.8,0.7,1.3,1.4,1.7
		c0.7,0.3,1.8,0.5,3.2,0.5c4.7,0,8.4-0.9,11.1-2.6s4.6-4.2,5.6-7.5c1.1-3.3,1.6-7.4,1.6-12.5c0-5.1-0.6-9.2-1.8-12.4
		c-1.2-3.2-3.1-5.6-5.8-7.2c-2.7-1.6-6.3-2.4-10.8-2.4c-1.4,0-2.4,0.2-3.1,0.5c-0.7,0.3-1.2,0.9-1.4,1.7c-0.3,0.8-0.4,2-0.4,3.6
		v33.1C24.8,77.5,25,78.7,25.2,79.5z"/>
	<path class="st0" d="M73.2,47.8c-0.7,0.3-1.1,0.7-1.4,1.4c-0.2,0.7-0.4,1.8-0.4,3.3v23.9c0,1.5,0.1,2.6,0.4,3.3
		c0.2,0.7,0.7,1.2,1.4,1.4c0.7,0.3,1.7,0.4,3.2,0.5v1.2c-1.8-0.1-4.4-0.2-7.7-0.2c-3.5,0-6,0.1-7.7,0.2v-1.2
		c1.5-0.1,2.5-0.2,3.2-0.5c0.7-0.3,1.1-0.7,1.4-1.4c0.2-0.7,0.4-1.8,0.4-3.3V52.5c0-1.5-0.1-2.6-0.4-3.3c-0.2-0.7-0.7-1.2-1.4-1.4
		c-0.7-0.3-1.7-0.4-3.2-0.5v-1.2c1.7,0.1,4.2,0.2,7.7,0.2c3.3,0,5.8-0.1,7.7-0.2v1.2C74.9,47.4,73.8,47.6,73.2,47.8z"/>
	<path class="st0" d="M114.9,48c-0.7,0.3-1.1,0.9-1.4,1.7c-0.3,0.8-0.4,1.9-0.4,3.5v30h-1.4L87.7,49.7v26.1c0,1.6,0.1,2.7,0.4,3.5
		c0.3,0.8,0.8,1.3,1.5,1.7c0.8,0.3,1.9,0.5,3.5,0.6v1.2c-1.4-0.1-3.5-0.2-6.2-0.2c-2.4,0-4.3,0.1-5.6,0.2v-1.2
		c1.4-0.1,2.4-0.3,3.1-0.6c0.7-0.3,1.1-0.9,1.4-1.7c0.3-0.8,0.4-2,0.4-3.5V52.5c0-1.5-0.1-2.6-0.4-3.3c-0.2-0.7-0.7-1.2-1.4-1.4
		c-0.7-0.3-1.7-0.4-3.2-0.5v-1.2c1.3,0.1,3.2,0.2,5.6,0.2c2.2,0,4.1-0.1,5.6-0.2l19.2,26.7V53.1c0-1.5-0.1-2.7-0.4-3.5
		c-0.3-0.8-0.8-1.3-1.5-1.7c-0.8-0.3-1.9-0.5-3.5-0.6v-1.2c1.4,0.1,3.5,0.2,6.1,0.2c2.4,0,4.3-0.1,5.6-0.2v1.2
		C116.7,47.4,115.6,47.6,114.9,48z"/>
	<path class="st0" d="M152,75.7c0,2.1,0.1,4.5,0.4,7.1c-2.6-0.1-7-0.2-13.2-0.2c-7.4,0-13,0.1-16.9,0.2v-1.2
		c1.5-0.1,2.5-0.2,3.2-0.5c0.7-0.3,1.1-0.7,1.4-1.4c0.2-0.7,0.4-1.8,0.4-3.3V52.5c0-1.5-0.1-2.6-0.4-3.3c-0.2-0.7-0.7-1.2-1.4-1.4
		c-0.7-0.3-1.7-0.4-3.2-0.5v-1.2c3.8,0.1,9.4,0.2,16.9,0.2c5.6,0,9.6-0.1,12-0.2c-0.3,2.4-0.4,4.6-0.4,6.5c0,1.6,0.1,2.8,0.2,3.7
		h-1.4c-0.2-2.2-0.6-4-1.1-5.3c-0.5-1.3-1.3-2.2-2.3-2.8c-1-0.6-2.3-0.8-4-0.8h-4.4c-1.5,0-2.5,0.1-3.2,0.3
		c-0.7,0.2-1.1,0.7-1.4,1.4c-0.2,0.7-0.4,1.8-0.4,3.3v11.2h5c1.3,0,2.3-0.3,3-1c0.7-0.7,1.2-1.4,1.4-2.2c0.2-0.8,0.5-1.8,0.6-3h1.4
		c-0.1,1.6-0.2,3.1-0.2,4.5l0,2.3c0,1.6,0.1,3.9,0.4,6.8H143c-0.2-1.2-0.4-2.3-0.7-3.1c-0.3-0.9-0.8-1.6-1.5-2.1
		c-0.7-0.6-1.7-0.9-3-0.9h-5v11.4c0,1.5,0.1,2.6,0.4,3.3c0.2,0.7,0.7,1.1,1.4,1.4c0.7,0.2,1.7,0.4,3.2,0.4h4.4c2,0,3.6-0.3,4.7-1
		c1.2-0.6,2.1-1.7,2.7-3.1c0.6-1.4,1-3.4,1.3-6h1.4C152.1,72.4,152,73.9,152,75.7z"/>
	<path class="st0" d="M191.2,82.8c-1,0.6-2.2,0.9-3.5,0.9c-3.3,0-5.4-1.5-6.2-4.6l-1.9-7.5c-0.4-1.5-0.9-2.7-1.5-3.5
		c-0.6-0.8-1.4-1.4-2.3-1.7c-0.9-0.3-2.1-0.5-3.6-0.5h-3.4v10.5c0,1.5,0.1,2.6,0.4,3.3c0.2,0.7,0.7,1.2,1.4,1.4
		c0.7,0.3,1.7,0.4,3.2,0.5v1.2c-1.9-0.1-4.4-0.2-7.7-0.2c-3.5,0-6,0.1-7.7,0.2v-1.2c1.5-0.1,2.5-0.2,3.2-0.5
		c0.7-0.3,1.1-0.7,1.4-1.4c0.2-0.7,0.4-1.8,0.4-3.3V52.5c0-1.5-0.1-2.6-0.4-3.3c-0.2-0.7-0.7-1.2-1.3-1.4c-0.6-0.2-1.7-0.4-3.2-0.5
		v-1.2c1.7,0.1,4.1,0.2,7.4,0.2c1.5,0,3.1,0,4.9-0.1c1.8,0,3-0.1,3.6-0.1c3,0,5.5,0.4,7.6,1.2c2.1,0.8,3.7,1.9,4.7,3.2
		c1,1.4,1.6,2.9,1.6,4.7c0,1.5-0.4,2.9-1.1,4.3c-0.8,1.4-2,2.6-3.8,3.7c-1.8,1.1-4.1,1.8-7.1,2.1c0.7,0,1.4,0.1,2.1,0.2
		c2.1,0.3,3.8,1,5.1,1.9c1.2,1,2.1,2.5,2.6,4.6l1.3,5.5c0.3,1.4,0.7,2.4,1.1,3c0.4,0.6,0.9,0.9,1.5,0.9c1,0,2.1-0.7,3.3-2.1l0.8,0.8
		C193,81.4,192.1,82.2,191.2,82.8z M178.4,63.6c1.4-0.7,2.3-1.7,2.8-3c0.5-1.3,0.8-2.8,0.8-4.6c0-2.9-0.7-5.1-2.2-6.5
		c-1.5-1.4-3.9-2.1-7.2-2.1c-1.1,0-1.9,0.1-2.4,0.4c-0.5,0.3-0.9,0.8-1.1,1.5c-0.2,0.7-0.3,1.8-0.3,3.2v12.1h4.1
		C175.2,64.7,177.1,64.3,178.4,63.6z"/>
	<path class="st0" d="M321.9,78.2c1.9,2.8,4.8,4.2,8.8,4.2c1.5,0,2.9-0.3,4.2-0.9c1.3-0.6,2.4-1.6,3.2-2.9c0.8-1.3,1.2-3,1.2-5
		c0-1.7-0.4-3.2-1.2-4.6c-0.8-1.3-2-2.6-3.4-3.7c-1.4-1.1-3.3-2.4-5.7-3.8c-2.6-1.6-4.7-3-6.3-4.2c-1.6-1.2-2.9-2.7-3.9-4.5
		c-1-1.7-1.5-3.8-1.5-6.1c0-2.5,0.6-4.6,1.7-6.3c1.1-1.7,2.6-3,4.5-3.9c1.9-0.9,4-1.3,6.2-1.3c1.4,0,2.5,0.1,3.5,0.3
		c1,0.2,1.8,0.5,2.4,0.8c0.6,0.3,1.4,0.8,2.1,1.3c1,0.6,1.7,0.9,2.3,0.9c0.4,0,0.7-0.2,0.9-0.7c0.2-0.5,0.4-1.2,0.5-2.2h1.5
		c-0.2,2.6-0.3,7.1-0.3,13.5h-1.5c-0.2-2.3-0.7-4.4-1.5-6.3c-0.8-1.9-2-3.5-3.6-4.7c-1.6-1.2-3.5-1.8-5.8-1.8c-1.6,0-2.9,0.3-4.2,1
		c-1.2,0.6-2.2,1.6-2.9,2.7c-0.7,1.2-1,2.5-1,4c0,2.4,0.7,4.3,2.2,5.8c1.4,1.5,3.1,2.8,5.1,4c1.9,1.2,3.2,2,3.9,2.4
		c2.8,1.7,5,3.3,6.6,4.5c1.6,1.3,2.9,2.8,3.9,4.5c1,1.7,1.5,3.7,1.5,5.9c0,2.7-0.6,5-1.9,6.9c-1.3,1.9-2.9,3.3-5.1,4.3
		c-2.1,0.9-4.5,1.4-7.1,1.4c-2.1,0-3.9-0.2-5.2-0.7c-1.4-0.4-2.6-1-3.9-1.8c-1-0.6-1.7-0.9-2.3-0.9c-0.4,0-0.7,0.2-0.9,0.7
		c-0.2,0.5-0.4,1.2-0.5,2.2h-1.5c0.2-2.4,0.3-7.7,0.3-15.9h1.5C318.9,71.8,320,75.5,321.9,78.2z"/>
	<path class="st0" d="M380.6,79.1c-0.3,0-0.7,0.2-1.2,0.6c-1.5,1.3-3,2.2-4.5,2.9c-1.5,0.7-3.2,1-5.3,1c-3.6,0-6.7-0.7-9.4-2.2
		c-2.7-1.5-4.8-3.6-6.3-6.5c-1.5-2.8-2.2-6.2-2.2-10.1c0-3.8,0.8-7.2,2.3-10.2c1.5-3,3.7-5.3,6.4-6.9c2.7-1.6,5.8-2.4,9.3-2.4
		c1.4,0,2.6,0.2,3.7,0.5c1.1,0.3,2,0.8,2.9,1.3c0.8,0.6,1.7,1.2,2.7,2.1c0.5,0.4,0.9,0.6,1.2,0.6c0.8,0,1.3-1.2,1.5-3.6h1.4
		c-0.2,2.3-0.3,6.5-0.3,12.7h-1.4c-0.4-2.1-0.8-3.6-1.2-4.6c-0.4-1-1-2-1.8-3.1c-1.1-1.5-2.5-2.6-4-3.4c-1.6-0.8-3.2-1.2-4.9-1.2
		c-2.4,0-4.4,0.7-6.2,2.2c-1.8,1.5-3.1,3.5-4.1,6.3c-1,2.7-1.4,5.9-1.4,9.7c0,3.8,0.5,7,1.6,9.7c1.1,2.7,2.5,4.7,4.4,6.1
		c1.8,1.4,3.9,2.1,6.2,2.1c1.8,0,3.5-0.4,5.1-1.2c1.6-0.8,3-1.9,4.1-3.4c0.8-1,1.4-2.1,1.8-3.3c0.4-1.2,0.7-2.8,1-5h1.4
		c0,6.3,0.1,10.8,0.2,13.3h-1.4C381.9,80.4,381.4,79.1,380.6,79.1z"/>
	<path class="st0" d="M418.7,47.5c2.8,1.5,4.9,3.6,6.5,6.5c1.5,2.8,2.3,6.2,2.3,10.1c0,3.8-0.8,7.2-2.4,10.2c-1.6,3-3.8,5.2-6.6,6.9
		c-2.8,1.6-6,2.5-9.6,2.5c-3.7,0-6.9-0.7-9.7-2.2c-2.8-1.5-4.9-3.6-6.5-6.5c-1.5-2.8-2.3-6.2-2.3-10.1c0-3.8,0.8-7.2,2.4-10.2
		c1.6-3,3.8-5.3,6.6-6.9c2.8-1.6,6-2.4,9.6-2.4C412.6,45.3,415.9,46,418.7,47.5z M402.2,48.7c-1.9,1.5-3.3,3.7-4.3,6.4
		c-1,2.8-1.5,5.9-1.5,9.5c0,3.6,0.6,6.7,1.7,9.4c1.1,2.7,2.7,4.8,4.6,6.3c1.9,1.5,4.1,2.2,6.4,2.2c2.5,0,4.6-0.8,6.5-2.3
		c1.9-1.5,3.3-3.7,4.3-6.4c1-2.8,1.5-5.9,1.5-9.5c0-3.6-0.6-6.7-1.7-9.4c-1.1-2.7-2.7-4.8-4.6-6.3c-1.9-1.5-4.1-2.2-6.4-2.2
		C406.2,46.4,404.1,47.2,402.2,48.7z"/>
	<path class="st0" d="M443.1,76.4c0,1.5,0.1,2.6,0.4,3.3c0.2,0.7,0.7,1.2,1.4,1.4c0.7,0.3,1.7,0.4,3.2,0.5v1.2
		c-1.8-0.1-4.4-0.2-7.7-0.2c-3.5,0-6,0.1-7.7,0.2v-1.2c1.5-0.1,2.5-0.2,3.2-0.5c0.7-0.3,1.1-0.7,1.4-1.4c0.2-0.7,0.4-1.8,0.4-3.3
		V52.5c0-1.5-0.1-2.6-0.4-3.3c-0.2-0.7-0.7-1.2-1.4-1.4c-0.7-0.3-1.7-0.4-3.2-0.5v-1.2c1.7,0.1,4.1,0.2,7.4,0.2c1.6,0,3.3,0,5.2-0.1
		c1.9,0,3.2-0.1,3.9-0.1c2.9,0,5.3,0.4,7.3,1.3c2,0.8,3.5,2,4.5,3.5c1,1.5,1.5,3.3,1.5,5.3c0,1.9-0.5,3.8-1.4,5.5
		c-0.9,1.8-2.6,3.2-4.8,4.4c-2.3,1.2-5.3,1.8-9,1.8h-4.1V76.4z M454.3,64.1c1.4-1.8,2.1-4.2,2.1-7.2c0-3.3-0.7-5.7-2-7.2
		c-1.4-1.6-3.6-2.3-6.8-2.3c-1.3,0-2.2,0.1-2.8,0.4c-0.6,0.3-1.1,0.8-1.3,1.5c-0.2,0.7-0.4,1.8-0.4,3.2v14.2h3.4
		C450.3,66.8,452.9,65.9,454.3,64.1z"/>
	<path class="st0" d="M496.2,75.7c0,2.1,0.1,4.5,0.4,7.1c-2.6-0.1-7-0.2-13.2-0.2c-7.4,0-13,0.1-16.9,0.2v-1.2
		c1.5-0.1,2.5-0.2,3.2-0.5c0.7-0.3,1.1-0.7,1.4-1.4c0.2-0.7,0.4-1.8,0.4-3.3V52.5c0-1.5-0.1-2.6-0.4-3.3c-0.2-0.7-0.7-1.2-1.4-1.4
		c-0.7-0.3-1.7-0.4-3.2-0.5v-1.2c3.8,0.1,9.4,0.2,16.9,0.2c5.6,0,9.6-0.1,12-0.2c-0.3,2.4-0.4,4.6-0.4,6.5c0,1.6,0.1,2.8,0.2,3.7
		h-1.4c-0.2-2.2-0.6-4-1.1-5.3c-0.5-1.3-1.3-2.2-2.3-2.8c-1-0.6-2.3-0.8-4-0.8h-4.4c-1.5,0-2.5,0.1-3.2,0.3
		c-0.7,0.2-1.1,0.7-1.4,1.4c-0.2,0.7-0.4,1.8-0.4,3.3v11.2h5c1.3,0,2.3-0.3,3-1c0.7-0.7,1.2-1.4,1.4-2.2c0.2-0.8,0.5-1.8,0.6-3h1.4
		c-0.1,1.6-0.2,3.1-0.2,4.5l0,2.3c0,1.6,0.1,3.9,0.4,6.8h-1.4c-0.2-1.2-0.4-2.3-0.7-3.1c-0.3-0.9-0.8-1.6-1.5-2.1
		c-0.7-0.6-1.7-0.9-3-0.9h-5v11.4c0,1.5,0.1,2.6,0.4,3.3c0.2,0.7,0.7,1.1,1.4,1.4c0.7,0.2,1.7,0.4,3.2,0.4h4.4c2,0,3.6-0.3,4.7-1
		c1.2-0.6,2.1-1.7,2.7-3.1c0.6-1.4,1-3.4,1.3-6h1.4C496.2,72.4,496.2,73.9,496.2,75.7z"/>
</g>
</svg>
