<?xml version="1.0" encoding="utf-8"?>
<!-- Generator: Adobe Illustrator 16.0.0, SVG Export Plug-In . SVG Version: 6.00 Build 0)  -->
<!DOCTYPE svg PUBLIC "-//W3C//DTD SVG 1.1//EN" "http://www.w3.org/Graphics/SVG/1.1/DTD/svg11.dtd">
<svg version="1.1" id="Calque_1" xmlns="http://www.w3.org/2000/svg" xmlns:xlink="http://www.w3.org/1999/xlink" x="0px" y="0px"
	 width="101.247px" height="101.246px" viewBox="0 0 101.247 101.246" enable-background="new 0 0 101.247 101.246"
	 xml:space="preserve">
<g>
	<path fill="#FFFFFF" d="M50.985,52.285c-5.634-4.134-9.692-8.98-9.692-16.689c0-5.07,1.726-8.918,4.471-11.634
		c-2.883-2.31-6.907-3.468-12.387-3.468c-4.057,0-4.933,1.137-4.933,5.713v33.234c0,4.641,0.876,5.711,4.998,5.711
		C44.261,65.152,49.187,60.618,50.985,52.285"/>
	<path fill="#FFFFFF" d="M58.358,57.055c-0.984-0.59-1.95-1.178-2.898-1.77c-2.826,5.18-7.574,8.787-13.986,10.279h1.924
		c0.795,11.596,5.19,21.74,17.439,21.74c6.217,0,12.436-3.74,12.436-12.764C73.272,66.779,67.241,62.385,58.358,57.055"/>
	<path fill="#FFFFFF" d="M49.13,28.075c-0.407,1.187-0.636,2.48-0.636,3.874c0,3.541,1.255,6.208,3.307,8.495
		C51.63,35.316,50.803,31.206,49.13,28.075"/>
	<path fill="#FFFFFF" d="M50.624,0C22.665,0,0,22.664,0,50.623c0,27.959,22.665,50.624,50.624,50.624s50.623-22.664,50.623-50.624
		C101.247,22.664,78.583,0,50.624,0 M61.491,89.221c-6.779,0-10.333-1.822-13.091-3.553c-1.543-0.98-2.478-1.355-3.273-1.355
		c-1.216,0-1.73,1.449-2.104,4.207h-2.197c0.28-3.92,0.374-9.429,0.374-22.896c-2.087,0.463-4.327,0.729-6.751,0.729
		c-2.013,0-6.459-0.193-9.315-0.193c-3.116,0-6.394,0.064-8.244,0.193v-1.33c4.511-0.195,5.388-0.877,5.388-5.713V26.336
		c0-4.836-0.877-5.517-5.388-5.711v-1.332c1.525,0.098,4.024,0.229,6.491,0.229c0.552,0,1.071-0.033,1.623-0.033
		c3.051-0.065,7.497-0.196,10.029-0.196c5.307,0,9.671,0.94,13.156,2.719c3.128-2.025,7.031-3.014,11.105-3.014
		c6.311,0,9.117,1.825,11.688,3.555c1.543,0.98,2.385,1.355,3.273,1.355c1.215,0,1.729-1.449,2.104-4.208h2.197
		c-0.281,3.367-0.467,7.48-0.467,19.542h-2.197c-0.701-9.117-5.098-18.419-15.709-18.419c-3.563,0-6.582,1.244-8.663,3.363
		c4.674,3.881,6.979,9.994,6.979,18.119c0,1.141-0.074,2.238-0.182,3.316c1.944,1.242,4.064,2.49,6.26,3.862
		c9.957,6.216,17.252,11.267,17.252,21.552C81.829,83.191,72.618,89.221,61.491,89.221"/>
</g>
</svg>
